<?xml version="1.0" encoding="iso-8859-1"?>
<!-- Generator: Adobe Illustrator 18.1.0, SVG Export Plug-In . SVG Version: 6.00 Build 0)  -->
<svg version="1.1" xmlns="http://www.w3.org/2000/svg" xmlns:xlink="http://www.w3.org/1999/xlink" x="0px" y="0px"
	 viewBox="0 0 1920 724.182" style="enable-background:new 0 0 1920 724.182;" xml:space="preserve">
<g id="Bergen">
	<polygon style="fill:#F8DD9D;" points="388.273,563.636 415.618,461.758 441.116,374.545 457.364,340 503.481,278.182 
		559.182,216.364 571.5,187.273 606.108,122.727 615.108,85.455 624.636,60 637.364,35.682 659,25.455 684.104,30.909 
		702.818,42.182 735.545,56.364 748.273,74.182 765.1,85.455 778.6,103.636 802.598,152.727 864.462,272.727 904.593,352.727 
		946.917,443.636 964.897,493 981,534.545 1003,556.364 1015.5,572.727 1041.333,501.818 1070.091,457.259 1115.545,410.983 
		1150.091,340 1195.545,223.27 1245,131.182 1272.075,78.182 1301,54.545 1326.072,40 1339.182,30.909 1362.818,9.091 
		1373.727,9.091 1401,25.455 1432.567,61.818 1457.364,100 1506.063,194.545 1572.06,307.266 1599.182,352.727 1608.273,385.455 
		1627.557,485.455 1636.557,565.455 1674.055,421.818 1674.055,385.455 1666.455,350.909 1686.054,272.727 1706.455,229.27 
		1728,205.841 1738.46,192.743 1751.909,190.425 1766.455,223.27 1782.818,278.182 1811.909,304.266 1826.455,316.364 
		1857.364,391.262 1862.818,442.259 1869.045,458.759 1906.543,509.756 1920,523.255 1920,724.182 0,724.182 0,563.636 
		36.137,517.256 93.134,493 133.632,467.273 157.631,425.455 165.13,374.545 171.909,338.765 201.794,307.266 208.628,299.766 
		241,304.266 271.625,326.765 286.624,350.909 295.545,374.545 313.623,434.545 318.123,467.273 327.122,493 340.621,510.909 	"/>
	<polygon style="fill:#EDCD81;" points="1706.455,340 1704.501,345.417 1666.455,450.931 1674.055,385.455 1668.525,360.32 
		1691.175,261.818 1706.455,229.27 1751.909,190.425 1758.736,205.841 1780.109,269.091 1782.818,278.182 1826.455,316.364 
		1847.201,366.636 1858.493,401.818 1843.546,458.759 1840.546,392.762 1821.047,366.636 1826.455,385.455 1826.455,458.759 
		1813.548,380 1782.818,340 1788.273,380 1782.818,430.26 1766.455,366.636 1756.551,325.455 1734.052,366.636 1728,501.818 	"/>
	<polygon style="fill:#FDFDFB;" points="1728,316.364 1706.455,287.273 1666.455,350.909 1691.175,261.818 1728,205.841 
		1738.46,192.743 1738.46,184.182 1751.909,190.425 1758.736,205.841 1766.455,223.27 1780.109,269.091 1782.818,278.182 
		1826.455,316.364 1836.209,340 1788.273,301.266 1788.273,320 1751.332,287.273 1740.051,340 	"/>
	<polygon style="fill:#EDCD81;" points="1167.961,294.11 1242.5,205.841 1211.5,446.759 1311.073,226.27 1311.073,433.26 
		1373.727,210.909 1423.75,410.983 1423.75,205.841 1519.182,410.983 1519.182,440.759 1533.727,392.762 1471.565,194.545 
		1576.56,366.636 1595.545,485.455 1599.182,352.727 1439.182,78.182 1401,25.455 1383.571,9.091 1350.071,12.727 1326.072,40 
		1272.075,78.182 1224.636,161.818 	"/>
	<polygon style="fill:#FDFDFB;" points="1301,121.568 1195.545,223.27 1262.061,97.784 1277.732,74.182 1309.573,46.279 
		1326.072,40 1350.071,12.727 1362.818,0 1383.571,9.091 1408.273,21.818 1432.567,61.818 1460.805,106.682 1487.924,161.818 
		1462.818,140 1439.182,113.102 1439.182,156.364 1408.273,122.727 1373.727,97.784 1348.571,194.545 	"/>
	<polygon style="fill:#EDCD81;" points="855.096,421.818 822.581,261.818 881,340 823.891,223.27 851.791,252.727 785.466,117.682 
		765.1,85.455 754.244,78.182 735.545,56.364 684.104,42.182 666.455,30.909 644.636,32.244 624.636,60 611.201,101.636 
		599.182,138.182 584.636,171.932 542.799,234.545 479.182,310.754 452.233,350.909 430.463,410.983 584.636,226.364 
		439.616,501.818 637.364,261.818 624.636,541.254 699.182,252.727 760.6,541.254 765.1,243.636 	"/>
	<polygon style="fill:#FDFDFB;" points="610.608,261.818 584.636,205.841 527.621,252.727 599.182,138.182 599.182,111.635 
		621.233,69.091 637.364,54.545 637.364,35.682 644.636,32.244 659,25.455 691.909,35.611 712.408,49.985 735.545,56.364 
		754.244,78.182 778.6,103.636 785.466,117.682 811.25,254.545 765.1,190.425 748.273,223.27 702.818,171.932 669.436,223.27 
		639.182,143.636 	"/>
	<polygon style="fill:none;" points="318.123,467.273 327.122,526.255 295.545,450.909 285.124,534.545 265.625,467.273 
		241,569.091 217.364,510 201.794,485.455 195.129,517.256 189.129,572.727 189.129,621.818 170.091,493 171.909,475.258 
		147.131,510.909 136.632,590.909 130.091,510.909 136.632,485.455 100.633,510.909 81,556.364 82.818,510.909 124.674,472.963 
		152.413,434.545 170.091,348.361 201.794,307.266 217.364,300.981 241,304.266 271.625,326.765 295.545,356.764 	"/>
	<polygon style="fill:#EDCD81;" points="21.137,612.727 64.636,524.755 133.632,467.273 157.631,425.455 171.909,338.765 
		208.628,299.766 241,304.266 251.909,300.981 286.624,350.909 295.545,374.545 318.123,467.273 327.122,526.255 295.545,450.909 
		297.263,534.545 295.545,583.636 281.356,521.543 263.812,474.77 228.273,590.909 217.364,476.758 174.13,659.748 174.13,485.455 
		119.182,517.256 	"/>
	<polygon style="fill:#FDFDFB;" points="274.625,410.983 234.127,501.818 221,425.455 201.794,485.455 174.13,447.273 93.134,493 
		145.109,447.273 158.511,404.818 171.909,338.765 183.879,316.364 228.273,290.909 258.073,309.846 271.625,326.765 
		295.545,356.764 315.873,450.909 	"/>
</g>
<g id="Layer_1">
</g>
</svg>
