<?xml version="1.0" encoding="utf-8"?>
<!-- Generator: Adobe Illustrator 18.0.0, SVG Export Plug-In . SVG Version: 6.00 Build 0)  -->
<!DOCTYPE svg PUBLIC "-//W3C//DTD SVG 1.1//EN" "http://www.w3.org/Graphics/SVG/1.1/DTD/svg11.dtd">
<svg version="1.1" id="Laag_1" xmlns="http://www.w3.org/2000/svg" xmlns:xlink="http://www.w3.org/1999/xlink" x="0px" y="0px"
	 viewBox="0 0 272.7 207.3" enable-background="new 0 0 272.7 207.3" xml:space="preserve">
<polygon display="none" fill="none" stroke="#FDFDFB" stroke-miterlimit="10" points="139.7,101.8 51.6,12.1 254.2,70.7 "/>
<polygon display="none" fill="none" stroke="#000000" stroke-miterlimit="10" points="222.7,191.5 254.2,70.7 139.7,101.8 "/>
<polygon fill="#F8DD9D" points="89.9,86.6 89.9,135.3 182.8,135.3 182.8,77.3 89.9,77.3 "/>
<rect x="89.9" y="77.3" fill="#665F52" width="92.9" height="19.3"/>
<polygon fill="#423F38" points="144.5,88.8 128.4,90.8 121.7,98.3 117.7,102.5 117.7,112.7 117.7,120.2 129.6,126.2 141.5,126.2 
	156.4,122.8 159,108.5 159,98.3 149.7,90.8 "/>
<polygon fill="#040404" points="136.4,96.6 143.2,96.6 149.9,101.3 149.9,106.3 149.9,112 147.2,116.5 138.4,119.6 129.2,119.6 
	123.9,116.5 123.9,108.1 128.6,99.3 "/>
<polygon fill="#FFFFFF" stroke="#FFFFFF" stroke-miterlimit="10" points="136.4,103.3 143.2,106.3 143.2,112 145.9,103.3 
	141.1,100.6 "/>
<polygon fill="#FFFFFF" stroke="#FFFFFF" stroke-miterlimit="10" points="161.9,85.8 161.9,90.8 175.5,90.8 175.5,82.2 161.9,82.2 
	"/>
<rect x="100.6" y="72.9" fill="#423F38" width="6.7" height="4.4"/>
<rect x="110.6" y="72" fill="#423F38" width="17.3" height="5.1"/>
</svg>
