<?xml version="1.0" encoding="utf-8"?>
<!-- Generator: Adobe Illustrator 18.0.0, SVG Export Plug-In . SVG Version: 6.00 Build 0)  -->
<!DOCTYPE svg PUBLIC "-//W3C//DTD SVG 1.1//EN" "http://www.w3.org/Graphics/SVG/1.1/DTD/svg11.dtd">
<svg version="1.1" id="Laag_1" xmlns="http://www.w3.org/2000/svg" xmlns:xlink="http://www.w3.org/1999/xlink" x="0px" y="0px"
	 viewBox="0 0 767.3 520" enable-background="new 0 0 767.3 520" xml:space="preserve">
<polygon display="none" fill="none" stroke="#FDFDFB" stroke-miterlimit="10" points="139.7,101.8 51.6,12.1 254.2,70.7 "/>
<polygon display="none" fill="none" stroke="#000000" stroke-miterlimit="10" points="222.7,191.5 254.2,70.7 139.7,101.8 "/>
<g>
	<path fill="#FDFDFB" d="M205.1,26.1l-37.3,146.2l-8.2-0.8l-23.6-20l-29.1,7.3v54.8l20.4,25.3h29.5l5-16.4v30.9h26.9l40-227.3H205.1
		z M144.3,215.2c-0.4,1.5-1.5,2.3-2.7,2.5c-0.1,0.1-0.1,0.2-0.2,0.3c-0.8,1.7-3.6,2.4-5.1,1.3c-11.8-8.4-17.4-26.4-10.8-39.6
		c0.9-1.9,3.4-2.2,5.1-1.3c5.5,2.9,10.4,6.8,15.3,10.6c0.6,0.5,1,1,1.1,1.6c1.2,1.7,1.9,3.8,1.9,6.5
		C148.6,203.5,146,209.2,144.3,215.2z"/>
	<path fill="#FDFDFB" d="M282.5,184.1v-34.5l-7.3-18.9l-19.3-8.8h-24.3l-10.9,11.5v23.5l14.5,12.7l7.3-17.9l13.4,5.2v47.3L231.6,187
		l-20,10.6l-10.9,24.7l9.1,42h21.8l27.3-12.9v20l23.6,1.8l1.8-36.3L282.5,184.1z M240.9,223.7c0.3,4.4-0.5,8.6-1.1,13
		c-0.1,1-0.6,1.7-1.2,2.1c-2,4.3-5.9,7.9-10,10.1c-2.3,1.2-4.5,0-5.5-2.2c-3.9-9.3-10.3-21.9-3.4-31.4c5.5-7.6,14.7-1.2,20.3,2.7
		C242.2,219.4,242.1,222,240.9,223.7C240.9,223.6,240.9,223.7,240.9,223.7z"/>
	<path fill="#FDFDFB" d="M537.4,264.6l-19.6,18.7l-27.2-18.7l-29.6-53.3l18.2,7.1h24.1l8.6-17.7V189l-10.6-8.1h-34.2l23.5-28.9
		l27.2-64.3l-0.4-47.1l-26.1-16.6l-21.2,1.8l-27.3,70.9l-6.2,84.1l-12,21.3l-19.9,38.2l-16.5,3.6l-7.5-3.6l7.5-29.1v-73.6l-16.3-18
		l-27.3-3l-9.1,23.9l-9.1-17.4l-13.3-2.1l-13.6,11.1l-8.8,15.4l17.5,10.9l4.8-10.9l9.7,4.3l-14.5,108.4h27.3v-26.6l5.1-68.5
		l14.9-17.7l6.8,4.3l0.5,27.7l-0.5,38.7l-6.8,25.6v16.4l38.6,10.9l30.5-5.5l18.2-25.5L485,295l26.9,12.7l18.5-12.7l17.8-23.6
		L537.4,264.6z M475.2,191c8.5-0.7,18.4-2.2,24.6,5.1c1,1.2,1.6,3.1,0.6,4.5c-7.3,9.6-17,2.5-26.2,0.7c-2.6-0.5-3.2-2.9-2.3-4.8
		C471.1,194.3,472.2,191.2,475.2,191z M472.7,86.2c1.7-6.1,3.5-12.2,6-18c2-4.8,4.7-11.1,9.5-13.7c4.3-2.4,10.9-1.3,13.2,3.6
		c3.5,7.3-0.8,14.5-2.7,21.6c-1.6,6.2-2.2,12.7-4.3,18.7c-1.8,5.2-4.5,10.1-7.3,14.8c-6,10-12.7,19.6-17.3,30.4
		c-0.4,1-1.1,1.5-1.9,1.7c-1.5,3.1-7.1,2.6-7.1-1.6C461.2,123.8,467.4,105.2,472.7,86.2z"/>
	<polygon fill="#FDFDFB" points="93.1,268.4 116.8,279.3 116.8,369.7 105.9,444.8 60.3,470.6 27.7,449.2 19.8,412.1 19.8,369.5 
		38.6,357.5 51.3,378.7 51.3,388.4 40.4,399.7 40.4,427.6 57.3,433.9 69.5,419.3 81.1,399.7 89.5,339.3 89.5,278.3 89.5,261.3 	"/>
	<polygon fill="#FDFDFB" points="116.8,261.3 93.1,248.4 89.5,219.3 105.9,226.4 116.8,240.3 	"/>
	<path fill="#FDFDFB" d="M201.6,362.7l-1.8,22.5l-22.7,10.9l-13.7-14.5l-3-27.3l61.3-9.1v-27.3L210.7,287l-36.5-3.6l-32.6,16.4
		l-9.1,23.6l0.2,43.6l11.2,40.2l18,19.8l39.8,1.8l30.9-32.7v-42.4L201.6,362.7z M169,305.1c18.2-12.2,29.4,7.9,36.9,21.8
		c1.4,2.6-0.4,5.4-3.2,5.6c-11.8,0.7-23.1,4.8-35,4.5c-2.5-0.1-3.7-2.2-3.6-4.1c-0.7-0.6-1.3-1.4-1.8-2.3
		C157.3,321.4,160.7,310.6,169,305.1z"/>
	<polygon fill="#FDFDFB" points="291.3,329.1 280.3,329.1 280.3,301.9 314.9,301.9 371.5,395.6 385.8,348.7 393.1,348.7 
		414.9,387.3 427.8,297.7 456.7,307.3 456.7,325.5 442.1,325.5 427.8,427.1 408.7,427.1 391.6,387.3 378,425.5 358.8,423.3 
		307.6,329.1 	"/>
	<path fill="#FDFDFB" d="M645.3,419.6l-9.7,35l-21.2,7.2l-5.7-42.7l5.2-34.1l6.7-22.2l23.9-64.6l7.4-54l-13.2-33l-33.7-4.6
		L593.1,228l-2.9,62.8l-0.1,80.7L552.1,407L508.8,421l-24.4-12.5l-4.6-22.6l68-14.6l-8.5-30.5l-10.1-21.6l-27.4-3.7l-33.7,11.9
		L450,370.8l7.5,34.1l15.2,32.7l24.5,8.9l39.6,5.4l47.2-29.7l-0.4,18.4l14.9,43.2l19.7,7.3l24.4-14.1l10.8-18.2l10.4-36.4
		L645.3,419.6z M481.6,358.1c-2.1-0.5-3.8-2.5-2.7-5c4.7-10.6,15.6-17.5,27.2-15.9c6.4,0.9,20.2,2.8,21.3,11.1
		c1.1,8.2-9.7,8.6-15.4,9.2c-5,0.5-9.9,0.9-14.9,1.5c-2.9,0.3-7,0.3-9.5,1.9C484.9,362.7,481.9,360.5,481.6,358.1z M620.1,318.8
		c-0.2,0.3-0.4,0.6-0.6,0.9c-0.7,2.6-1.5,5.2-2.6,7.7c-0.3,0.6-0.6,1.1-1.1,1.5c0,0.3-0.1,0.6-0.1,0.9c-0.6,4.8-8,3.7-7.4-1
		c3.8-28.9,3.9-58,5.8-87c0.2-3.6,4.6-3.9,6.6-1.7c8.6,9.1,11.5,18.9,10,31.2C628.7,287.4,626.8,303.8,620.1,318.8z"/>
	<polygon fill="#FDFDFB" points="703.6,420.7 686.1,400.3 681.1,376.7 692.4,369.4 711.1,378.5 721,360.3 734.3,360.3 745.2,376.7 	
		"/>
	<polygon fill="#FDFDFB" points="699.9,343.9 681.1,224 703.6,213 711.4,343.6 	"/>
</g>
<g>
	<path fill="#51D2D4" d="M212.5,30.4l-37.3,146.2l-8.2-0.8l-23.6-20l-29.1,7.3v54.8l20.4,25.3h29.5l5-16.4v30.9h26.9l40-227.3H212.5
		z M151.7,219.4c-0.4,1.5-1.5,2.3-2.7,2.5c-0.1,0.1-0.1,0.2-0.2,0.3c-0.8,1.7-3.6,2.4-5.1,1.3c-11.8-8.4-17.4-26.4-10.8-39.6
		c0.9-1.9,3.4-2.2,5.1-1.3c5.5,2.9,10.4,6.8,15.3,10.6c0.6,0.5,1,1,1.1,1.6c1.2,1.7,1.9,3.8,1.9,6.5
		C156.1,207.7,153.4,213.4,151.7,219.4z"/>
	<path fill="#51D2D4" d="M290,188.4v-34.5l-7.3-18.9l-19.3-8.8H239l-10.9,11.5v23.5l14.5,12.7l7.3-17.9l13.4,5.2v47.3L239,191.2
		l-20,10.6l-10.9,24.7l9.1,42H239l27.3-12.9v20l23.6,1.8l1.8-36.3L290,188.4z M248.4,227.9c0.3,4.4-0.5,8.6-1.1,13
		c-0.1,1-0.6,1.7-1.2,2.1c-2,4.3-5.9,7.9-10,10.1c-2.3,1.2-4.5,0-5.5-2.2c-3.9-9.3-10.3-21.9-3.4-31.4c5.5-7.6,14.7-1.2,20.3,2.7
		C249.6,223.7,249.5,226.2,248.4,227.9C248.3,227.8,248.4,227.9,248.4,227.9z"/>
	<path fill="#51D2D4" d="M544.9,268.8l-19.6,18.7l-27.2-18.7l-29.6-53.3l18.2,7.1h24.1l8.6-17.7v-11.7l-10.6-8.1h-34.2l23.5-28.9
		l27.2-64.3l-0.4-47.1l-26.1-16.6l-21.2,1.8L450.3,101l-6.2,84.1l-12,21.3l-19.9,38.2l-16.5,3.6l-7.5-3.6l7.5-29.1v-73.6l-16.3-18
		l-27.3-3l-9.1,23.9l-9.1-17.4l-13.3-2.1L307,136.5l-8.8,15.4l17.5,10.9l4.8-10.9l9.7,4.3l-14.5,108.4H343V238l5.1-68.5l14.9-17.7
		l6.8,4.3l0.5,27.7l-0.5,38.7l-6.8,25.6v16.4l38.6,10.9l30.5-5.5l18.2-25.5l42.2,54.5l26.9,12.7l18.5-12.7l17.8-23.6L544.9,268.8z
		 M482.6,195.2c8.5-0.7,18.4-2.2,24.6,5.1c1,1.2,1.6,3.1,0.6,4.5c-7.3,9.6-17,2.5-26.2,0.7c-2.6-0.5-3.2-2.9-2.3-4.8
		C478.5,198.5,479.6,195.4,482.6,195.2z M480.1,90.4c1.7-6.1,3.5-12.2,6-18c2-4.8,4.7-11.1,9.5-13.7c4.3-2.4,10.9-1.3,13.2,3.6
		c3.5,7.3-0.8,14.5-2.7,21.6c-1.6,6.2-2.2,12.7-4.3,18.7c-1.8,5.2-4.5,10.1-7.3,14.8c-6,10-12.7,19.6-17.3,30.4
		c-0.4,1-1.1,1.5-1.9,1.7c-1.5,3.1-7.1,2.6-7.1-1.6C468.6,128,474.8,109.4,480.1,90.4z"/>
	<polygon fill="#51D2D4" points="100.6,272.6 124.2,283.5 124.2,373.9 113.3,449 67.8,474.8 35.1,453.4 27.3,416.3 27.3,373.7 
		46,361.7 58.8,382.9 58.8,392.6 47.9,403.9 47.9,431.8 64.8,438.1 77,423.5 88.5,403.9 97,343.5 97,282.5 97,265.5 	"/>
	<polygon fill="#51D2D4" points="124.2,265.5 100.6,252.6 97,223.5 113.3,230.6 124.2,244.5 	"/>
	<path fill="#51D2D4" d="M209,366.9l-1.8,22.5l-22.7,10.9l-13.7-14.5l-3-27.3l61.3-9.1v-27.3l-10.9-30.9l-36.5-3.6L149,303.9
		l-9.1,23.6l0.2,43.6l11.2,40.2l18,19.8L209,433l30.9-32.7v-42.4L209,366.9z M176.5,309.3c18.2-12.2,29.4,7.9,36.9,21.8
		c1.4,2.6-0.4,5.4-3.2,5.6c-11.8,0.7-23.1,4.8-35,4.5c-2.5-0.1-3.7-2.2-3.6-4.1c-0.7-0.6-1.3-1.4-1.8-2.3
		C164.7,325.6,168.2,314.9,176.5,309.3z"/>
	<polygon fill="#51D2D4" points="298.8,333.4 287.8,333.4 287.8,306.1 322.3,306.1 379,399.8 393.2,352.9 400.5,352.9 422.3,391.5 
		435.2,302 464.1,311.5 464.1,329.7 449.6,329.7 435.2,431.4 416.1,431.4 399,391.5 385.4,429.7 366.3,427.5 315,333.4 	"/>
	<path fill="#51D2D4" d="M652.7,423.9l-9.7,35l-21.2,7.2l-5.7-42.7l5.2-34.1L628,367l23.9-64.6l7.4-54l-13.2-33l-33.7-4.6
		l-11.9,21.4l-2.9,62.8l-0.1,80.7l-37.9,35.4l-43.3,14.1l-24.4-12.5l-4.6-22.6l68-14.6l-8.5-30.5l-10.1-21.6l-27.4-3.7l-33.7,11.9
		L457.5,375l7.5,34.1l15.2,32.7l24.5,8.9l39.6,5.4l47.2-29.7l-0.4,18.4l14.9,43.2l19.7,7.3l24.4-14.1l10.8-18.2l10.4-36.4
		L652.7,423.9z M489.1,362.3c-2.1-0.5-3.8-2.5-2.7-5c4.7-10.6,15.6-17.5,27.2-15.9c6.4,0.9,20.2,2.8,21.3,11.1
		c1.1,8.2-9.7,8.6-15.4,9.2c-5,0.5-9.9,0.9-14.9,1.5c-2.9,0.3-7,0.3-9.5,1.9C492.4,366.9,489.4,364.7,489.1,362.3z M627.5,323
		c-0.2,0.3-0.4,0.6-0.6,0.9c-0.7,2.6-1.5,5.2-2.6,7.7c-0.3,0.6-0.6,1.1-1.1,1.5c0,0.3-0.1,0.6-0.1,0.9c-0.6,4.8-8,3.7-7.4-1
		c3.8-28.9,3.9-58,5.8-87c0.2-3.6,4.6-3.9,6.6-1.7c8.6,9.1,11.5,18.9,10,31.2C636.2,291.6,634.2,308.1,627.5,323z"/>
	<polygon fill="#51D2D4" points="711,424.9 693.6,404.5 688.6,380.9 699.8,373.6 718.6,382.7 728.5,364.5 741.7,364.5 752.6,380.9 	
		"/>
	<polygon fill="#51D2D4" points="707.4,348.2 688.6,228.2 711,217.2 718.8,347.8 	"/>
</g>
</svg>
