<?xml version="1.0" encoding="iso-8859-1"?>
<!-- Generator: Adobe Illustrator 18.1.0, SVG Export Plug-In . SVG Version: 6.00 Build 0)  -->
<svg version="1.1" xmlns="http://www.w3.org/2000/svg" xmlns:xlink="http://www.w3.org/1999/xlink" x="0px" y="0px"
	 viewBox="0 0 1920 130.333" style="enable-background:new 0 0 1920 130.333;" xml:space="preserve">
<g id="Golf1">
	<polygon style="fill:#69C1A3;" points="1003,88.667 1043.667,68 1055.667,48 1070.091,34 1083,24 1096.333,15.333 1107,9.333 
		1115.667,9.333 1131,9.333 1137.667,9.333 1150.333,14 1158.333,18.879 1167.961,25.333 1173,45.333 1173,56.667 1167.961,67.333 
		1162.333,75.333 1143,77.333 1149.667,63.333 1149.667,57.333 1145.667,51.606 1137.667,51.606 1130.712,56.559 1129.667,64.667 
		1129.667,72.667 1131.667,80.667 1135.667,88.667 1143,91.333 1151.667,91.333 1161,91.333 1173,88 1183.667,78.667 1203,60 
		1219.667,46.667 1235.667,31.606 1261.667,18.879 1282.333,14 1301,12.667 1317,18.879 1326.333,28 1329.667,46 1326.333,51.606 
		1314.333,47.333 1293,50.333 1279.182,57.333 1276.333,66.667 1279.182,76.667 1289,88 1301,91.333 1323,91.333 1346.333,77.333 
		1359.667,65.333 1370.333,46 1379,31.606 1391,22 1406.333,14 1423.75,9.333 1439.182,13.333 1451,22 1454.333,40.697 
		1454.333,51.606 1445.667,68 1433,74 1417,74 1407.667,65.333 1407.667,58.667 1407.667,51.606 1417,51.606 1423.75,51.606 
		1423.75,45.333 1415,40.697 1405,40.697 1398.333,51.606 1399,62.667 1405.667,73.333 1412.333,82.667 1419.667,91.333 
		1431,91.333 1446.333,91.333 1480.333,68 1506.333,50.333 1519.182,40.697 1533.727,34.667 1548.333,31.606 1561.667,34.667 
		1577,40.697 1587,50.333 1590.333,71.606 1585.667,80.667 1573,86.667 1567.667,86.667 1559,78.667 1558.333,73.424 
		1564.333,73.424 1567,68 1562.333,62 1553.727,62 1547.667,73.424 1547,86.667 1553.727,96.667 1567.667,101.333 1587,97.333 
		1608.333,85.333 1623,66 1645.667,28 1661.667,9.333 1672.333,0 1684.333,0 1695.667,0 1706.455,8 1713,18.879 1717,31.606 
		1717,40.697 1710.333,47.333 1706.455,45.333 1706.455,40.697 1706.455,27.333 1698.333,24 1690.333,25.333 1687,31.606 
		1684.333,45.333 1686.333,64.667 1692.333,78 1702.333,82.667 1717,81.333 1728,71.606 1753.667,38 1782.818,21.333 
		1793.667,18.879 1810.333,24.667 1817.667,31.606 1825,47.333 1825,58 1817,64.667 1811.667,64.667 1811,58 1813.667,50.667 
		1809,45.333 1802.333,46.667 1798.333,53.424 1797.667,71.606 1804.333,88 1820.333,96.667 1858.493,92.667 1881,78.667 
		1887.667,58 1893.667,40.697 1900.333,25.333 1909.667,18.879 1920,8 1920,130.333 0,130.333 0,54.667 8.333,46.152 21.137,46.152 
		27.667,54.667 27.667,59.333 21.137,58 13.667,58 10.333,65.9 21.137,90.667 32.333,96.667 61,94 89,70 103.667,33.424 
		120.333,9.333 145.667,2.667 170.091,5.333 181.667,12.667 185.011,19.845 188.333,33.424 185,40.667 180.63,38.385 177,27.97 
		170.091,23.333 155.667,27.97 152.333,33.424 155,65.167 170.091,75.242 191.667,86.152 217.364,93.333 243.667,86.152 275,65.9 
		315.873,33.424 337.667,12.667 359,6.667 378.333,7.333 397,15.333 408.273,22.667 412.333,42 412.333,59.333 400.333,75.242 
		393,79.333 385,78.667 381,75.242 388.273,65.167 388.273,58 388.273,51.333 381,50.667 377,54.667 373,65.167 371.667,75.242 
		374.333,86.152 383.667,94 401.667,91.333 435,71.333 465.667,40.667 492.333,27.97 519.667,19.333 541.667,17.333 553.727,17.333 
		565.667,22 571.5,37.333 571.5,50 567.667,54.667 559.667,56.667 553.727,56.667 553.727,51.333 553.727,46.152 546.333,46.152 
		530.333,52 524.333,65.167 524.333,77.333 529.667,90 541,96.667 558.333,96.667 573.667,86.152 597.667,58 619,27.97 
		636.333,14.667 651.667,7.333 667,8 681.667,10 696.333,22.667 699,27.97 701.667,46.152 701,56 688.333,74.667 671,80 
		664.333,78.667 655.732,70.667 651,65.167 649.667,56.667 650.333,52 659,56 665.667,56 667.667,51.333 662.333,46.152 
		655.732,46.152 644.636,49.333 644.636,61.333 644.636,72 655.732,86.152 671.667,93.424 691.909,93.424 725,74.667 753,48 
		777,35.333 798.333,32.667 813,33.333 823,40.667 827.667,51.606 828.333,68 823.667,78.667 809,86 810.333,70 805.667,65.167 
		796.333,65.167 791.909,65.167 788.333,76.667 794.333,93.424 804.333,99.333 822.333,101.333 855.667,79.333 902.333,36.667 
		927.5,20 960,12 981,15.333 995.545,25.333 1005.667,39.333 1009,51.606 1004.333,70.667 988.333,82 971.909,78.667 978.333,74 
		979,65.167 975,60.667 964.897,62.667 964.897,72.667 969,81.333 981.667,89.333 	"/>
</g>
<g id="Layer_1">
</g>
</svg>
