<?xml version="1.0" encoding="iso-8859-1"?>
<!-- Generator: Adobe Illustrator 18.1.0, SVG Export Plug-In . SVG Version: 6.00 Build 0)  -->
<svg version="1.1" xmlns="http://www.w3.org/2000/svg" xmlns:xlink="http://www.w3.org/1999/xlink" x="0px" y="0px"
	 viewBox="0 0 130.5 87.5" style="enable-background:new 0 0 130.5 87.5;" xml:space="preserve">
<g id="IJsbeer2_x5F_kop">
	<polygon style="fill:#FDFDFD;" points="130.5,66.5 109.5,87.5 87,77 62,63 39,53.531 10.5,37.5 3,20.5 14.5,11.955 18,11.955 
		58,11.955 60.5,8.318 72,0 80,0 87,2 89,6.102 91,8.318 91,15 90.5,20.5 104.864,25 115.773,41 	"/>
	<polygon style="fill:#060401;" points="7.833,3 0,6.102 7.833,16.908 	"/>
	<polygon style="fill:#060401;" points="41.5,20.5 51,16.908 53.5,25 49.5,20.954 	"/>
	<polygon style="fill:#060401;" points="7.652,31.045 19.5,31.045 26.682,26 22.5,33.773 8.856,33.773 	"/>
	<polygon style="fill:#FEB0B7;" points="70.5,11.955 75,8.318 80,6.102 84.5,8.318 84.5,11.955 84.5,16.908 	"/>
</g>
<g id="Layer_1">
</g>
</svg>
