<?xml version="1.0" encoding="iso-8859-1"?>
<!-- Generator: Adobe Illustrator 18.1.0, SVG Export Plug-In . SVG Version: 6.00 Build 0)  -->
<svg version="1.1" xmlns="http://www.w3.org/2000/svg" xmlns:xlink="http://www.w3.org/1999/xlink" x="0px" y="0px"
	 viewBox="0 0 108.5 98.494" style="enable-background:new 0 0 108.5 98.494;" xml:space="preserve">
<g id="IJsbeer1_x5F_kop">
	<polygon style="fill:#FDFDFD;" points="35.232,98.494 100,35.75 104.833,11.705 101,8.068 78,8.068 57.409,17.75 43,11.705 
		31,11.705 27,11.705 27,14.75 27,21.25 31,28.068 21.045,36.689 13,36.25 0,63.25 0,78.75 	"/>
	<polygon style="fill:#FEB0B7;" points="46.5,20.75 37.5,25.75 33,20.75 33,17.75 35.5,14.75 39.75,14.75 46.5,17.75 	"/>
	<polygon style="fill:#060401;" points="98.5,11.705 98.5,0 108.5,5.852 	"/>
	<polygon style="fill:#060401;" points="70.397,21.17 57.814,22.17 55.397,28.33 61.897,24.489 	"/>
	<polygon style="fill:#060401;" points="101.492,28.33 95.591,30.25 82.5,28.068 84.5,30.25 95.591,33.523 	"/>
</g>
<g id="Layer_1">
</g>
</svg>
