<?xml version="1.0" encoding="utf-8"?>
<!-- Generator: Adobe Illustrator 18.0.0, SVG Export Plug-In . SVG Version: 6.00 Build 0)  -->
<!DOCTYPE svg PUBLIC "-//W3C//DTD SVG 1.1//EN" "http://www.w3.org/Graphics/SVG/1.1/DTD/svg11.dtd">
<svg version="1.1" id="Laag_1" xmlns="http://www.w3.org/2000/svg" xmlns:xlink="http://www.w3.org/1999/xlink" x="0px" y="0px"
	 viewBox="0 0 630.9 190.9" enable-background="new 0 0 630.9 190.9" xml:space="preserve">
<polygon display="none" fill="none" stroke="#FDFDFB" stroke-miterlimit="10" points="139.7,101.8 51.6,12.1 254.2,70.7 "/>
<polygon display="none" fill="none" stroke="#000000" stroke-miterlimit="10" points="222.7,191.5 254.2,70.7 139.7,101.8 "/>
<polygon fill="#FDFDFB" points="63.9,22.8 87.6,43.6 63.9,67.5 63.9,54.6 33.2,54.6 33.2,98.2 122.2,98.2 122.2,54.6 98.5,55.3 
	98.5,34.6 132.9,34.6 132.9,114.4 19.9,113.7 18.5,36.6 60.9,34.6 "/>
<path fill="#FDFDFB" d="M258.5,58.8L233.1,48h-30.9l-20.3,6.6l-14.3,21.1l-1,23.1l19.9,15.6l28.5-8.9V61.3h14.5l-14.5,106h14.5
	l3.6-61.8h16.4l12.7-14.5L258.5,58.8z M197.6,91.7c-1.4,1-2.7,1.1-3.9,0.7c-1.3,0.9-2.8,1.4-4.5,1.4c-4.7,0-9-4-8.8-8.9
	c0.2-6.7,7.3-12.8,13.8-12.7c3.9,0,7.6,2.4,8.2,6.5C203,83.1,201.2,89.1,197.6,91.7z M252,77.6c-0.4,2.2-0.4,4.6-1.2,6.7
	c-1,2.6-2.9,4.4-5.5,5.5c-2.9,1.3-6.3-0.8-5.5-4.2c0.9-4,1.1-8,2-12c0.8-3.7,5.4-3.2,6.8-0.6C250.7,73.3,252.5,75.1,252,77.6z"/>
<path fill="#FDFDFB" d="M588.9,48L583,89.1l-9.9-23.6l-17,1.8l-6.1,17.7l-4.6-41.3L516.1,48l-6.6,13.9l-5.5,29.1l-11.6-6l0.4-48.3
	l-7.3-2.1l-4.5,50.4l-11.4,6L467.7,80l-12.8-43.3V26.5l-16,17.2L424.4,80l-5.9,18.2l-20.7-7.3l-0.6-27.6l23.1-8.8l-10.4-20
	l-22.3-6.1l-10.9,13.4l-3,19.5v7.8l-11.4,15.8h-12.9V36.6l-18.2,5.2L327.6,72l-7.3,17.1l-7.5-6.5l-6.8-28.1l-5.4-10.9L278.5,48
	l-9.1-19.5l-7.3,15.2l6.8,10.9v53.8h9.6V69.1l11.8-3.6l10.3,6.5v33.5l5.4,8.9h14.3l16.4-17.7v11.7l9.5,6l21.4-8.9l18.2-14.5
	l5.5,17.4l16.7,6H424l13.1-8.9l6.9-34.5l10.9,27.3l14.5,16.2l9.9-6l10.6-10.2l2.4,16.2h11.6l12.1-23.4l6.5-23.6l16-4l3.7,7.6v34.5
	l7.6,16.4h10.3l5.2-37l15.4,37h12.3l4.8-60.1l9.3-0.5V48H588.9z M388.9,54.9c-1.5-0.5-2.8-1.9-2.7-3.6c0.4-8.2,8.5-9.2,15-8.4
	c2,0.2,3.7,1.5,3.7,3.7c0,1.4-1,2.9-2.3,3.5c-0.2,0.9-0.6,1.7-1.5,2.4C397.6,55.1,393.2,56.4,388.9,54.9z"/>
<polygon fill="#FDFDFB" points="331.3,34.6 345.3,28.5 338.3,15.7 331.3,17.1 331.3,28.5 "/>
<polygon fill="#51D2D4" points="69.1,25.7 92.8,46.6 69.1,70.4 69.1,57.5 38.4,57.5 38.4,101.1 127.4,101.1 127.4,57.5 103.7,58.3 
	103.7,37.5 138.1,37.5 138.1,117.3 25,116.6 23.7,39.6 66.1,37.5 "/>
<path fill="#51D2D4" d="M263.7,61.8l-25.5-10.9h-30.9l-20.3,6.6l-14.3,21.1l-1,23.1l19.9,15.6l28.5-8.9V64.2h14.5l-14.5,106h14.5
	l3.6-61.8h16.4l12.7-14.5L263.7,61.8z M202.8,94.7c-1.4,1-2.7,1.1-3.9,0.7c-1.3,0.9-2.8,1.4-4.5,1.4c-4.7,0-9-4-8.8-8.9
	c0.2-6.7,7.3-12.8,13.8-12.7c3.9,0,7.6,2.4,8.2,6.5C208.2,86,206.4,92,202.8,94.7z M251.7,90.5c-1.4,2.4-4.2,2.1-5.7,0.7
	c-2,0.2-4.2-1-4.2-3.6v-11c0-2.9,3.1-4.5,5.6-3.2c3.1,1.6,5.9,4.1,6.6,7.7C254.6,84.4,253.3,87.6,251.7,90.5z"/>
<path fill="#51D2D4" d="M594.1,50.9L588.2,92l-9.9-23.6l-17,1.8l-6.1,17.7l-4.6-41.3l-29.3,4.3l-6.6,13.9l-5.5,29.1l-11.6-6
	l0.4-48.3l-7.3-2.1l-4.5,50.4l-11.4,6l-1.7-10.9l-12.8-43.3V29.4l-16,17.2l-14.5,36.3l-5.9,18.2l-20.7-7.3l-0.6-27.6l23.1-8.8
	l-10.4-20l-22.3-6.1l-10.9,13.4l-3,19.5V72l-11.4,15.8h-12.9V39.6l-18.2,5.2l-3.6,30.1L325.5,92l-7.5-6.5l-6.8-28.1l-5.4-10.9
	l-22.2,4.3l-9.1-19.5l-7.3,15.2l6.8,10.9v53.8h9.6V72l11.8-3.6l10.3,6.5v33.5l5.4,8.9h14.3l16.4-17.7v11.7l9.5,6l21.4-8.9L391,93.9
	l5.5,17.4l16.7,6h16.1l13.1-8.9l6.9-34.5l10.9,27.3l14.5,16.2l9.9-6l10.6-10.2l2.4,16.2h11.6l12.1-23.4l6.5-23.6l16-4l3.7,7.6v34.5
	l7.6,16.4h10.3l5.2-37l15.4,37h12.3l4.8-60.1l9.3-0.5V50.9H594.1z M394.1,57.8c-1.5-0.5-2.8-1.9-2.7-3.6c0.4-8.2,8.5-9.2,15-8.4
	c2,0.2,3.7,1.5,3.7,3.7c0,1.4-1,2.9-2.3,3.5c-0.2,0.9-0.6,1.7-1.5,2.4C402.7,58,398.4,59.3,394.1,57.8z"/>
<polygon fill="#51D2D4" points="336.4,37.5 350.4,31.4 343.4,18.6 336.4,20.1 336.4,31.4 "/>
</svg>
