<?xml version="1.0" encoding="iso-8859-1"?>
<!-- Generator: Adobe Illustrator 18.1.0, SVG Export Plug-In . SVG Version: 6.00 Build 0)  -->
<svg version="1.1" xmlns="http://www.w3.org/2000/svg" xmlns:xlink="http://www.w3.org/1999/xlink" x="0px" y="0px"
	 viewBox="0 0 139.5 292.532" style="enable-background:new 0 0 139.5 292.532;" xml:space="preserve">
<g id="Pinguin2">
	<polygon style="fill:#FDFDFD;" points="20.73,250.077 2,254.199 0,268.866 35.167,277.032 35.167,282.032 101.833,288.699 
		139.5,266.866 109.273,257.079 115.32,254.006 56.167,243.032 	"/>
	<polygon style="fill:#040404;" points="87.333,0 67.333,0 55.833,3.199 45.333,31.199 35.374,61.82 23.333,78.199 15.833,95.846 
		12.333,114.699 5.333,154.472 9.143,201.928 12.333,230.699 25.333,260.699 37.833,265.699 56.495,262.903 67.833,254.699 
		71.333,254.199 81.833,265.699 87.333,270.699 97.333,265.699 111.333,239.699 120.833,215.699 120.833,193.699 120.833,119.699 
		122.687,85.381 122.687,51.699 122.687,26.199 111.333,10.199 97.833,0 	"/>
	<polygon style="fill:#FDFDFD;" points="90.833,10.199 108.333,19.699 111.333,24.699 111.333,30.199 111.333,64.699 
		111.333,107.604 107.708,157.572 106.833,204.522 103.833,243.199 95.833,260.199 86.333,265.699 76.333,254.199 70.333,248.032 
		58.333,258.199 53.054,259.126 45.333,254.199 45.333,196.056 45.333,161.744 51.833,120.199 55.333,90.835 68.833,52.199 
		78.333,37.199 86.333,23.199 	"/>
	<polygon style="fill:#43A7A1;" points="69.833,12.032 64.01,17.699 66.922,10.199 68.333,7.699 70.5,7.699 77.167,7.699 73,10.199 
		70.588,10.199 	"/>
	<polygon style="fill:#EA4D09;" points="29.931,262.538 17.833,261.699 10.833,265.699 24,265.032 29.931,265.699 21.333,268.866 
		18,272.032 27.833,269.699 34.167,266.866 38.667,270.699 38.667,265.574 	"/>
	<polygon style="fill:#EA4D09;" points="87.333,270.699 103,269.199 112.5,269.949 103,266.866 109.833,263.532 114.167,263.532 
		106.833,261.699 100.75,264.699 102.891,260.323 99.225,262.186 97.333,265.699 	"/>
	<polygon style="fill:#82ECFF;" points="0,269.532 0,272.866 35.167,280.199 35.167,277.032 	"/>
	<polygon style="fill:#82ECFF;" points="35.167,282.032 35.167,285.199 102.333,292.532 139.5,268.366 139.5,266.866 
		100.75,288.699 	"/>
	<polygon style="fill:#82ECFF;" points="115.32,254.006 115.32,258.366 109.273,257.079 114.167,254.006 	"/>
</g>
<g id="Layer_1">
</g>
</svg>
