<?xml version="1.0" encoding="iso-8859-1"?>
<!-- Generator: Adobe Illustrator 18.1.0, SVG Export Plug-In . SVG Version: 6.00 Build 0)  -->
<svg version="1.1" xmlns="http://www.w3.org/2000/svg" xmlns:xlink="http://www.w3.org/1999/xlink" x="0px" y="0px"
	 viewBox="0 0 734.727 200.386" style="enable-background:new 0 0 734.727 200.386;" xml:space="preserve">
<g id="Spandoek">
	<polygon style="fill:#FBEFD2;" points="117.424,12.856 156,33.114 169,41.477 194.667,41.477 256.545,41.477 336,48.659 
		416,40.477 469.273,37.477 543,11.295 597.742,0 600.182,33.114 600.182,49.144 621.333,82.477 641,115.477 678.664,134.477 
		734.727,149.477 702,162.477 654,171.477 621.667,163.477 595,146.477 617,176.75 621.667,176.75 561,154.932 546,131.477 
		562,122.205 586.667,104.477 546,125.841 506,140.386 469.273,149.477 409.273,161.477 332,163.477 256.545,163.477 
		194.667,156.75 146,140.386 99,122.205 92.455,117.477 127.333,140.386 152,148.477 134,183.477 92.455,200.386 109.894,181.477 
		109.894,168.477 92.455,190.477 20.667,194.477 0,188.477 63.818,156.75 87.455,115.477 109.894,91.295 117.424,65.811 
		117.424,29.462 	"/>
</g>
<g id="Layer_1">
</g>
</svg>
