<?xml version="1.0" encoding="utf-8"?>
<!-- Generator: Adobe Illustrator 18.0.0, SVG Export Plug-In . SVG Version: 6.00 Build 0)  -->
<!DOCTYPE svg PUBLIC "-//W3C//DTD SVG 1.1//EN" "http://www.w3.org/Graphics/SVG/1.1/DTD/svg11.dtd">
<svg version="1.1" id="Laag_1" xmlns="http://www.w3.org/2000/svg" xmlns:xlink="http://www.w3.org/1999/xlink" x="0px" y="0px"
	 viewBox="0 0 599 311.5" enable-background="new 0 0 599 311.5" xml:space="preserve">
<polygon fill="#040404" points="337.3,264.1 352,253 352,230.9 273.1,230.9 211.9,230.9 150.5,224.2 95.9,194.1 78.1,160.9 
	72,129.6 72,92.7 83.2,66.9 126.8,46.6 208.3,47.7 279.5,47.7 352,46.6 439.8,47.7 495.8,66.9 520.2,120.3 510.7,177.2 490.2,210.7 
	430.5,218 377.8,224.2 377.8,245 364,264.1 "/>
<polygon fill="#FDFDFB" points="343.2,264.9 357.8,254 357.8,232.2 279.9,232.2 219.6,232.2 159,225.6 105.1,195.8 87.6,163.1 
	81.6,132.2 81.6,95.8 92.6,70.4 135.6,50.4 216,51.4 286.2,51.4 357.8,50.4 444.4,51.4 499.7,70.4 523.7,123.1 514.4,179.2 
	494.1,212.2 435.2,219.5 383.2,225.6 383.2,246.1 369.6,264.9 "/>
</svg>
