<?xml version="1.0" encoding="utf-8"?>
<!-- Generator: Adobe Illustrator 18.0.0, SVG Export Plug-In . SVG Version: 6.00 Build 0)  -->
<!DOCTYPE svg PUBLIC "-//W3C//DTD SVG 1.1//EN" "http://www.w3.org/Graphics/SVG/1.1/DTD/svg11.dtd">
<svg version="1.1" id="Laag_1" xmlns="http://www.w3.org/2000/svg" xmlns:xlink="http://www.w3.org/1999/xlink" x="0px" y="0px"
	 viewBox="0 0 599 311.5" enable-background="new 0 0 599 311.5" xml:space="preserve">
<polygon fill="#040404" points="316.2,50.9 251.2,50.9 190.2,61.6 139.7,89.2 139.7,137.1 143.3,181.3 190.2,213.8 272.7,213.8 
	300,213.8 311.1,229.1 311.1,252.5 291.6,258.8 331.6,246.3 334.1,229.1 339.7,209.5 376.9,199.2 423.7,197.9 456.3,193.1 
	479.1,162.9 479.1,129.3 452,80 401,61.6 "/>
<polygon fill="#FDFDFB" points="320.6,55.5 256.4,55.5 196.3,66 146.4,93.3 146.4,140.6 150,184.2 196.3,216.3 277.6,216.3 
	304.5,216.3 315.5,231.4 315.5,254.5 296.3,260.7 335.8,248.4 338.3,231.4 343.8,212 380.4,201.9 426.6,200.6 458.8,195.8 
	481.3,166 481.3,132.9 454.5,84.2 404.2,66 "/>
</svg>
