<?xml version="1.0" encoding="utf-8"?>
<!-- Generator: Adobe Illustrator 18.0.0, SVG Export Plug-In . SVG Version: 6.00 Build 0)  -->
<!DOCTYPE svg PUBLIC "-//W3C//DTD SVG 1.1//EN" "http://www.w3.org/Graphics/SVG/1.1/DTD/svg11.dtd">
<svg version="1.1" id="Laag_1" xmlns="http://www.w3.org/2000/svg" xmlns:xlink="http://www.w3.org/1999/xlink" x="0px" y="0px"
	 viewBox="0 0 905.4 523.6" enable-background="new 0 0 905.4 523.6" xml:space="preserve">
<polygon fill="#040404" points="373,428.2 396.1,418 412.6,393.2 412.6,382.2 318.7,382.2 235.8,367.4 214.3,346.9 199,304.8 
	199,256.9 221.1,186.4 245,152.3 285.3,124.3 319.7,117 381.3,117 458.7,112.9 528.7,117 589.8,124.3 653.9,139.1 692.6,159.3 
	711.4,184.9 725,212.2 723.9,270 702.5,328.8 653.9,361.9 546.7,367.4 471.6,382.2 458.7,409.2 427.2,432.5 "/>
<polygon fill="#FDFDFB" points="381,431.2 403.7,421.1 420.1,396.6 420.1,385.7 327.4,385.7 245.5,371.2 224.3,350.9 209.2,309.4 
	209.2,262.1 231,192.5 254.6,158.8 294.4,131.2 328.3,123.9 389.2,123.9 465.5,119.9 534.6,123.9 595,131.2 658.3,145.7 
	696.5,165.7 715,190.9 728.5,217.9 727.4,275 706.2,333 658.3,365.7 552.5,371.2 478.3,385.7 465.5,412.4 434.5,435.4 "/>
</svg>
