<?xml version="1.0" encoding="utf-8"?>
<!-- Generator: Adobe Illustrator 18.0.0, SVG Export Plug-In . SVG Version: 6.00 Build 0)  -->
<!DOCTYPE svg PUBLIC "-//W3C//DTD SVG 1.1//EN" "http://www.w3.org/Graphics/SVG/1.1/DTD/svg11.dtd">
<svg version="1.1" id="Laag_1" xmlns="http://www.w3.org/2000/svg" xmlns:xlink="http://www.w3.org/1999/xlink" x="0px" y="0px"
	 viewBox="0 0 361.8 181.8" enable-background="new 0 0 361.8 181.8" xml:space="preserve">
<polygon display="none" fill="none" stroke="#FDFDFB" stroke-miterlimit="10" points="139.7,101.8 51.6,12.1 254.2,70.7 "/>
<polygon display="none" fill="none" stroke="#000000" stroke-miterlimit="10" points="222.7,191.5 254.2,70.7 139.7,101.8 "/>
<polygon fill="#FDFDFB" points="26.4,24.1 78.6,71.2 23.6,104.8 "/>
<polygon fill="#FDFDFB" points="111.5,96.9 108.5,89.1 96.4,84.5 80.7,90.7 80.7,111.5 92.6,133.2 125.1,135.7 143.4,117.7 
	147.9,85.7 128.8,64.5 118.1,60 114.3,46.6 121.8,37.8 128.8,40.3 128.8,52.3 138.6,52.3 138.6,34.3 121.8,28.7 107.2,28.7 
	101.7,43.4 103.5,60 114.3,71.1 123.8,77.8 132.5,84.5 131.8,101.2 128.8,117.7 109.7,125.2 96.4,121.2 91.9,103.7 96.4,99.4 
	100.5,101.8 "/>
<path fill="#FDFDFB" d="M213.9,106.2c-0.1,0-0.1,0.1-0.2,0.1c0,0.1,0.1,0.2,0.1,0.3c0,0.8,0,1.7,0,2.5
	C213.8,108.1,213.9,107.1,213.9,106.2z"/>
<path fill="#FDFDFB" d="M277.1,74.8l-9.8,13.4V76h-7.7l-3.4,15.4l-6.3,38.2l-11.6,8.9l-8.3-2.8l-0.8-18v-17.1l3.5-16.1l-10-2.3v6.9
	h-14l-9.5,12.8l-8.4,15.8l-14.2,4.5l-5.6-10.7l1.3-14.5l0.6-24l9.8-3.1V57.5L171.8,60V37.8h-7.2V60h-16.7l3,12.9h13.7l-5.6,35.2
	l5.6,21l12.1,4.2l15.4-8l3.8,10.5l13.4,6l9.5-6l6.1,9.3l7.7,1.9l12.7-1.9l8.2-6.5v6.5h10.6v-22.9l2.9-22.2l9.8-15.5l4.2,3.7h8.7
	v-7.6L277.1,74.8z M215.8,119.3c-0.1,1.5-0.2,3-0.3,4.5c0,0.3-0.2,0.5-0.5,0.6c-0.2,1.3-0.6,2.5-1.2,3.8c-1.3,3.9-4.9,5.3-8.7,2.6
	c-0.8-0.5-1.2-1.3-1.4-2.2c-0.2,0-0.5-0.1-0.6-0.4c-2.3-4.5-0.7-10,1-14.4c0.6-1.5,1.3-2.8,2-4.1c0.7-2.3,1.9-4.5,3.4-6.5
	c0.7-1.2,1.6-2.2,2.9-2.9c0.1,0,0.2-0.1,0.3-0.1c1.8-1.2,3.8-1.9,6.1-2.1c0.4,0,0.8,0.3,0.7,0.7
	C218.8,105.9,216.6,112.5,215.8,119.3z"/>
<polygon fill="#FDFDFB" points="304.9,44 299.2,64.5 281.3,64.5 281.3,68 298,72.9 290,111.5 285.5,122.8 285.5,135.7 290,145 
	304.9,145 323.5,135.7 323.5,125.2 315.2,125.2 314,133.2 307.2,135.7 298.6,135.7 296.8,125.2 302.4,102.5 304.9,77.2 318.6,80.6 
	318.6,71.1 304.9,68.6 311.6,44 "/>
<polygon fill="#69C1A3" points="30.6,20.2 82.8,67.4 27.8,101 "/>
<polygon fill="#69C1A3" points="115.7,93.1 112.7,85.2 100.5,80.7 84.9,86.9 84.9,107.6 96.8,129.4 129.3,131.9 147.6,113.8 
	152.1,81.9 133,60.6 122.3,56.1 118.5,42.7 126,34 133,36.4 133,48.4 142.8,48.4 142.8,30.4 126,24.8 111.4,24.8 105.9,39.5 
	107.7,56.1 118.5,67.2 128,74 136.7,80.7 136,97.4 133,113.8 113.9,121.4 100.5,117.3 96.1,99.8 100.5,95.5 104.7,98 "/>
<path fill="#69C1A3" d="M218.1,102.3c-0.1,0-0.1,0.1-0.2,0.1c0,0.1,0.1,0.2,0.1,0.3c0,0.8,0,1.7,0,2.5
	C218,104.2,218.1,103.3,218.1,102.3z"/>
<path fill="#69C1A3" d="M281.3,70.9l-9.8,13.4V72.1h-7.7l-3.4,15.4l-6.3,38.2l-11.6,8.9l-8.3-2.8l-0.8-18V96.7l3.5-16.1l-10-2.3v6.9
	h-14L203.5,98l-8.4,15.8l-14.2,4.5l-5.6-10.7l1.3-14.5l0.6-24l9.8-3.1V53.7L176,56.1V34h-7.2v22.2h-16.7l3,12.9h13.7l-5.6,35.2
	l5.6,21l12.1,4.2l15.4-8l3.8,10.5l13.4,6l9.5-6l6.1,9.3l7.7,1.9l12.7-1.9l8.2-6.5v6.5h10.6v-22.9l2.9-22.2l9.8-15.5l4.2,3.7h8.7
	v-7.6L281.3,70.9z M220,115.5c-0.1,1.5-0.2,3-0.3,4.5c0,0.3-0.2,0.5-0.5,0.6c-0.2,1.3-0.6,2.5-1.2,3.8c-1.3,3.9-4.9,5.3-8.7,2.6
	c-0.8-0.5-1.2-1.3-1.4-2.2c-0.2,0-0.5-0.1-0.6-0.4c-2.3-4.5-0.7-10,1-14.4c0.6-1.5,1.3-2.8,2-4.1c0.7-2.3,1.9-4.5,3.4-6.5
	c0.7-1.2,1.6-2.2,2.9-2.9c0.1,0,0.2-0.1,0.3-0.1c1.8-1.2,3.8-1.9,6.1-2.1c0.4,0,0.8,0.3,0.7,0.7C222.9,102,220.8,108.6,220,115.5z"
	/>
<polygon fill="#69C1A3" points="309.1,40.1 303.4,60.6 285.5,60.6 285.5,64.1 302.2,69.1 294.2,107.6 289.7,118.9 289.7,131.9 
	294.2,141.2 309.1,141.2 327.7,131.9 327.7,121.4 319.4,121.4 318.2,129.4 311.4,131.9 302.8,131.9 301,121.4 306.6,98.6 
	309.1,73.4 322.8,76.7 322.8,67.2 309.1,64.7 315.7,40.1 "/>
</svg>
