<?xml version="1.0" encoding="iso-8859-1"?>
<!-- Generator: Adobe Illustrator 18.1.0, SVG Export Plug-In . SVG Version: 6.00 Build 0)  -->
<svg version="1.1" xmlns="http://www.w3.org/2000/svg" xmlns:xlink="http://www.w3.org/1999/xlink" x="0px" y="0px"
	 viewBox="0 0 217.955 193.83" style="enable-background:new 0 0 217.955 193.83;" xml:space="preserve">
<g id="Vis1">
	<polygon style="fill:#EA4D09;" points="155.054,27.836 127,12.927 103.606,12.927 80,20.382 63.503,27.836 53.69,31.473 
		48.129,36.927 23,42.382 18,42.382 10.317,42.382 8.667,52.594 33.13,52.594 22.373,78.087 25,86.018 33.13,86.018 48.129,52.594 
		76.364,49.473 114,42.382 154.545,42.382 166,42.382 174.873,37.927 171,31.473 	"/>
	<polygon style="fill:#962C0F;" points="113,27.836 91.77,7.677 76.364,5.078 83.763,12.927 63.503,12.927 80,20.382 63.503,22.382 
		100,31.473 	"/>
	<polygon style="fill:#FDFDFD;" points="135,22.382 130.667,25.261 128,23.821 126.333,20.927 126.333,18.275 126.333,14.261 
		130.667,12.927 135,12.927 137,15.594 138.604,19.094 	"/>
	<polygon style="fill:#040404;" points="133.667,18.275 132.469,16.594 129.667,16.594 129.667,19.094 129.667,20.594 
		131.667,20.594 	"/>
	<polygon style="fill:#EA4D09;" points="171,31.473 173.667,27.836 177,27.836 177,31.473 174.873,33.261 177,36.594 177,39.594 
		174.873,39.594 172.445,39.146 	"/>
	<polygon style="fill:#962C0F;" points="116.667,12.927 106.732,0 106.732,9.261 100.756,5.594 103.606,12.927 	"/>
	<polygon style="fill:#962C0F;" points="48.129,42.382 29.091,39.594 5.333,42.382 0,49.473 12,52.594 24.064,52.594 18,67.261 
		29.091,62.166 22.373,78.087 25,86.018 29.091,91.261 42.37,65.427 	"/>
	<polygon style="fill:#962C0F;" points="164,33.715 171,36.261 174.873,33.261 177,31.473 170.5,33.867 	"/>
	<polygon style="fill:#962C0F;" points="101.227,44.788 88.252,55.83 88.252,49.473 73.955,55.83 73.955,50.309 63.503,50.895 
		91.77,42.376 	"/>
</g>
<g id="Layer_1">
</g>
</svg>
