<?xml version="1.0" encoding="iso-8859-1"?>
<!-- Generator: Adobe Illustrator 18.1.0, SVG Export Plug-In . SVG Version: 6.00 Build 0)  -->
<svg version="1.1" xmlns="http://www.w3.org/2000/svg" xmlns:xlink="http://www.w3.org/1999/xlink" x="0px" y="0px"
	 viewBox="0 0 219.545 89.364" style="enable-background:new 0 0 219.545 89.364;" xml:space="preserve">
<g id="Vogel1">
	<polygon style="fill:#64F8FA;" points="123.212,9.364 88.212,18.182 79,21.182 123.212,21.182 160.879,11.939 170.212,2.697 	"/>
	<polygon style="fill:#64F8FA;" points="166,2.697 171.333,0 176,0 179.455,1.348 187.333,6.03 195.333,9.848 190,18.182 
		184.667,14.697 190.667,21.182 195.333,27.273 155.818,41.364 132.394,48.509 118.667,52.697 108.667,56.03 92.667,56.03 
		67.333,46.697 58.333,44.03 30.667,72.697 20,72.697 14,72.697 14,67.273 14,61.818 18,56.697 20.667,52.697 10.667,57.364 
		7.333,54.697 7.333,50.03 7.333,40.697 11.333,36.348 4,36.348 0,32.697 0,27.273 8,24.03 0,18.182 0,9.848 3.333,9.848 10,9.848 
		17.333,9.848 31.333,18.182 49.333,27.273 55.667,29.364 72,21.182 91.333,18.182 114.425,15.219 146.333,9.848 161.667,6.515 	"/>
	<polygon style="fill:#64F8FA;" points="85.333,9.848 114,2.697 166,2.697 155.818,7.787 141.114,10.727 91.333,18.182 79,21.182 
		72,21.182 	"/>
	<polygon style="fill:#060401;" points="179.667,8.03 174.212,2.697 168.879,11.076 174.273,6.886 	"/>
	<polygon style="fill:#FD8F99;" points="195.333,9.848 190,18.182 184.667,14.697 195.333,21.182 219.545,21.182 202.106,15.515 	
		"/>
	<polygon style="fill:#FEB0B7;" points="195.333,27.273 219.545,21.182 195.333,21.182 184.667,14.697 	"/>
	<polygon style="fill:#FEB0B7;" points="92.667,56.03 101.545,56.03 88.879,76.697 88.879,89.364 85.545,72.697 66.879,77.364 	"/>
	<polygon style="fill:#FEB0B7;" points="108.667,56.03 108.667,72.697 112.879,89.364 104.879,76.03 97.667,80.03 105.273,56.03 	
		"/>
</g>
<g id="Layer_1">
</g>
</svg>
