<?xml version="1.0" encoding="iso-8859-1"?>
<!-- Generator: Adobe Illustrator 18.1.0, SVG Export Plug-In . SVG Version: 6.00 Build 0)  -->
<svg version="1.1" id="Laag_1" xmlns="http://www.w3.org/2000/svg" xmlns:xlink="http://www.w3.org/1999/xlink" x="0px" y="0px"
	 viewBox="0 0 328.5 301" style="enable-background:new 0 0 328.5 301;" xml:space="preserve">
<polygon style="fill:none;stroke:#FFFF9F;stroke-miterlimit:10;" points="165.5,132.818 154.5,125.545 154.5,132.818 160,141.716 
	165.5,141.716 170.002,143.209 297.682,185.545 167.5,149.262 204.5,293.973 161.5,149.262 48.591,226 150.409,149.262 5.5,116.455 
	150.409,141.716 103.364,22.712 151.591,116.455 186.5,6.152 160.5,125.545 267.983,61.909 174.045,132.818 318.872,125.545 
	179.5,141.716 125.5,263.727 "/>
<path style="fill:none;stroke:#FFFF9F;stroke-width:3;stroke-miterlimit:10;" d="M64.606,60.753c1.648,0.71,3.296,1.42,4.944,2.13"
	/>
<path style="fill:none;stroke:#FFFF9F;stroke-width:3;stroke-miterlimit:10;" d="M82.781,77.721
	c1.992,2.007,3.985,4.015,5.977,6.022"/>
<path style="fill:none;stroke:#FFFF9F;stroke-width:3;stroke-miterlimit:10;" d="M103.487,96.033
	c2.016,0.779,3.784,2.188,4.994,3.98"/>
<path style="fill:none;stroke:#FFFF9F;stroke-width:3;stroke-miterlimit:10;" d="M119.674,113.811
	c1.917,1.758,3.833,3.515,5.75,5.273"/>
<path style="fill:none;stroke:#FFFF9F;stroke-width:3;stroke-miterlimit:10;" d="M136.512,129.967
	c1.383,0.491,2.513,1.645,2.976,3.037"/>
<path style="fill:none;stroke:#FFFF9F;stroke-width:3;stroke-miterlimit:10;" d="M146.451,141.485
	c1.361,0.138,2.573,1.219,2.865,2.555"/>
<path style="fill:none;stroke:#FFFF9F;stroke-width:3;stroke-miterlimit:10;" d="M53.5,169c2.333,0,4.667,0,7,0"/>
<path style="fill:none;stroke:#FFFF9F;stroke-width:3;stroke-miterlimit:10;" d="M73.514,166.909
	c3.348,0.53,6.811,0.321,10.071-0.607"/>
<path style="fill:none;stroke:#FFFF9F;stroke-width:3;stroke-miterlimit:10;" d="M100.575,164.737
	c4.335,1.227,9.132,0.731,13.125-1.355"/>
<path style="fill:none;stroke:#FFFF9F;stroke-width:3;stroke-miterlimit:10;" d="M131.53,154.848c2.918,0.574,6.107-0.527,8.05-2.78
	"/>
<path style="fill:none;stroke:#FFFF9F;stroke-width:3;stroke-miterlimit:10;" d="M134.855,179.077
	c-0.649,3.004-1.298,6.008-1.947,9.011"/>
<path style="fill:none;stroke:#FFFF9F;stroke-width:3;stroke-miterlimit:10;" d="M121.499,203c0.282,1.557-0.601,3.251-2.039,3.912
	c0,1.667-0.96,5.421-0.96,7.088"/>
<path style="fill:none;stroke:#FFFF9F;stroke-width:3;stroke-miterlimit:10;" d="M111.25,226.356
	c-1.857,3.909-3.714,7.819-5.572,11.728"/>
<path style="fill:none;stroke:#FFFF9F;stroke-width:3;stroke-miterlimit:10;" d="M165.5,180c0,6,0,12,0,18"/>
<path style="fill:none;stroke:#FFFF9F;stroke-width:3;stroke-miterlimit:10;" d="M165.5,212c0,3.667,0,7.333,0,11"/>
<path style="fill:none;stroke:#FFFF9F;stroke-width:3;stroke-miterlimit:10;" d="M165.5,235c0,1.333,0,2.667,0,4"/>
<path style="fill:none;stroke:#FFFF9F;stroke-width:3;stroke-miterlimit:10;" d="M164.5,254c0,4,0,8,0,12"/>
<path style="fill:none;stroke:#FFFF9F;stroke-width:3;stroke-miterlimit:10;" d="M179.128,157.135
	c1.905,5.247,3.81,10.494,5.715,15.74"/>
<path style="fill:none;stroke:#FFFF9F;stroke-width:3;stroke-miterlimit:10;" d="M194.046,187.233
	c1.497,2.916,2.994,5.832,4.49,8.748"/>
<path style="fill:none;stroke:#FFFF9F;stroke-width:3;stroke-miterlimit:10;" d="M207.301,212.106
	c1.052,1.972,2.104,3.944,3.156,5.917"/>
<path style="fill:none;stroke:#FFFF9F;stroke-width:3;stroke-miterlimit:10;" d="M217.881,231.219
	c0.951,2.684,1.901,5.368,2.852,8.053"/>
<path style="fill:none;stroke:#FFFF9F;stroke-width:3;stroke-miterlimit:10;" d="M192.517,142.75
	c4.336,0.294,8.672,0.588,13.008,0.882"/>
<path style="fill:none;stroke:#FFFF9F;stroke-width:3;stroke-miterlimit:10;" d="M221.5,149c3.667,0,7.333,0,11,0"/>
<path style="fill:none;stroke:#FFFF9F;stroke-width:3;stroke-miterlimit:10;" d="M252.5,151c3,0,6,0,9,0"/>
<path style="fill:none;stroke:#FFFF9F;stroke-width:3;stroke-miterlimit:10;" d="M277.5,152c2,0,4,0,6,0"/>
<path style="fill:none;stroke:#FFFF9F;stroke-width:3;stroke-miterlimit:10;" d="M190.523,122.909
	c2.345,0.58,4.888,0.322,7.069-0.717"/>
<path style="fill:none;stroke:#FFFF9F;stroke-width:3;stroke-miterlimit:10;" d="M214.499,116.014
	c3.025,0.148,6.075-0.225,8.976-1.096"/>
<path style="fill:none;stroke:#FFFF9F;stroke-width:3;stroke-miterlimit:10;" d="M241.465,112.821
	c2.68,0.569,6.384,0.569,7.128-2.068"/>
<path style="fill:none;stroke:#FFFF9F;stroke-width:3;stroke-miterlimit:10;" d="M263.51,107.919
	c3.358,0.395,6.776,0.27,10.096-0.368"/>
<path style="fill:none;stroke:#FFFF9F;stroke-width:3;stroke-miterlimit:10;" d="M170.453,108.996
	c0.485-5.316,3.093-10.408,7.123-13.908"/>
<path style="fill:none;stroke:#FFFF9F;stroke-width:3;stroke-miterlimit:10;" d="M183.563,83.983
	c-0.55-2.05,0.889-4.411,2.963-4.863"/>
<path style="fill:none;stroke:#FFFF9F;stroke-width:3;stroke-miterlimit:10;" d="M195.5,66c1.333-1.333,2.667-2.667,4-4"/>
<path style="fill:none;stroke:#FFFF9F;stroke-width:3;stroke-miterlimit:10;" d="M207.049,51.547
	c1.836-1.83,3.673-3.659,5.509-5.489"/>
<path style="fill:none;stroke:#FFFF9F;stroke-width:3;stroke-miterlimit:10;" d="M223.598,39.103
	c1.704-1.627,3.409-3.254,5.113-4.881"/>
<path style="fill:none;stroke:#FFFF9F;stroke-width:3;stroke-miterlimit:10;" d="M240.409,23.936
	c1.789-2.561,4.239-4.656,7.047-6.026"/>
<path style="fill:none;stroke:#FFFF9F;stroke-width:3;stroke-miterlimit:10;" d="M138.5,7c0,4,0,8,0,12"/>
<path style="fill:none;stroke:#FFFF9F;stroke-width:3;stroke-miterlimit:10;" d="M138.5,31c0,2,0,4,0,6"/>
<path style="fill:none;stroke:#FFFF9F;stroke-width:3;stroke-miterlimit:10;" d="M138.5,57c0,2.333,0,4.667,0,7"/>
<path style="fill:none;stroke:#FFFF9F;stroke-width:3;stroke-miterlimit:10;" d="M143.5,84c0,2.667,0,5.333,0,8"/>
<path style="fill:none;stroke:#FFFF9F;stroke-width:3;stroke-miterlimit:10;" d="M148.5,105c0,1.667,0,3.333,0,5"/>
<path style="fill:none;stroke:#FFFF9F;stroke-width:3;stroke-miterlimit:10;" d="M103.487,116.455l46.922,25.261l-27.861-45.683
	l31.951,36.785L152.897,66l7.603,59.545l34.228-36.786L165.5,132.818l58.098-10.626l-53.596,21.017l51.498,10.325h-52.908
	l52.726,32.012l-62.148-32.012l-6.274,81.712l9.289-73.109L108.481,208.5l44.415-53.292c-2.425,4.619-4.849,9.237-7.274,13.856"/>
<path style="fill:none;stroke:#FFFF9F;stroke-width:3;stroke-miterlimit:10;" d="M92.769,147.866l57.64-6.15L92.769,147.866z"/>
<polygon style="fill:none;stroke:#FFFF9F;stroke-width:3;stroke-miterlimit:10;" points="150.409,149.262 99.5,145.387 
	146.451,141.485 "/>
</svg>
