<?xml version="1.0" encoding="utf-8"?>
<!-- Generator: Adobe Illustrator 18.0.0, SVG Export Plug-In . SVG Version: 6.00 Build 0)  -->
<!DOCTYPE svg PUBLIC "-//W3C//DTD SVG 1.1//EN" "http://www.w3.org/Graphics/SVG/1.1/DTD/svg11.dtd">
<svg version="1.1" id="Laag_1" xmlns="http://www.w3.org/2000/svg" xmlns:xlink="http://www.w3.org/1999/xlink" x="0px" y="0px"
	 viewBox="0 0 561.8 236.4" enable-background="new 0 0 561.8 236.4" xml:space="preserve">
<polygon display="none" fill="none" stroke="#FDFDFB" stroke-miterlimit="10" points="139.7,101.8 51.6,12.1 254.2,70.7 "/>
<polygon display="none" fill="none" stroke="#000000" stroke-miterlimit="10" points="222.7,191.5 254.2,70.7 139.7,101.8 "/>
<polygon fill="#FDFDFB" points="57.1,73.6 69.1,69.6 91.1,167 109.1,128.3 114.4,128.3 117.1,162.9 152.4,95.6 157.7,69.6 
	191.1,69.6 191.1,82.7 165.1,82.7 160.4,104.3 128.4,162.9 121.1,176.3 115.7,176.3 108.4,151.6 93.1,182.9 84.4,182.9 61.1,87.6 
	49.7,92 31.1,82.7 38.5,69.6 48.4,77 "/>
<path fill="#FDFDFB" d="M494.4,189l-7.3,4.7l-5.9-8l-4.1-15.3l-5-47.4v-9.2l-12.4-3.6l-11.3,12.8l-5.3-12.8h-8.7l-12,12.8l-3-4.6
	l-3.6-3.3l-7.3,0.7v7.2l-5.5,3.4h-9.1l-13.5-3.4h-12.5l-10.7,8.1l-6.7,18l-3.3,21.3l-7.3,18.7h-10l-4.7-9.3l-7.5-6.7l-9.1-15.9
	l17.2,0.6l8-11.3v-14l-4-6h-8.7l-14.7,8l11.2-25.3l3.5-26.3L317.6,51l-4.5-15.4l-12.7-4.5l-6,14l-6,24.4V131l-9,14.7l-11,23.3
	l-16.7,7.3l-7.3-4l-2-9.4l1.3-17.9l6.7-12.7l14-31.3V69.6L259.7,51l-13.3-10.7h-10l-6,15.3l2.7,76l-4,5.8l-3.3,6.9l-15.5,18.6
	l-25.2,9.4l-14-6l-3.3-13.3l0.7-6.7l29.3-3.3l4-6l-2.7-14.1l-10.7-6.6l-18,6.6l-10.7,6.1l-7.3,28.7l16.7,25.2l22,3.4l19.2-3.4
	l19.5-13.9l1.3,10l6.7,11.3l10.7,4.7l19.3-6.7l16-20.7l-4.4,41.3h13l2-37.3l10.7,18.7l16.1,14l12.5,4.7l15.3-5.3l6-24l2,12l4.5,22.2
	l13.5,3.2h14.7l10-8.7l3.1-25.4V159l-5.1-14.7l-4-6.9h16.7v76.4h9l7.3-82.8l9.8-4.7l6.7,18l10-0.7l4-13.3l15,60.7l9.1,15.3h10.5
	l10-10L494.4,189z M174,132.6c4.6-6,16.9-9.1,20.1-0.2c0.4,1-0.2,2.3-1.1,2.8c-5.2,2.7-10.9,2.4-16.6,2.3c-1,0-1.7-0.5-2.1-1.2
	C173.2,135.4,172.9,133.9,174,132.6z M237.8,120.5c0-2.7,0.7-5.2,1-7.8c-0.2-0.5-0.3-1-0.1-1.7c0.7-2.2,0.8-4.6,1.2-6.9
	c0-0.4,0-0.7,0-1.1c0-0.6,0-1.1,0-1.7c-0.3-4.7-0.4-9.7-0.1-14.8c0-8.5,0.3-17,1.4-25.5c0.1-1.1,0.6-2.1,1.8-2.4
	c10.7-2.4,12.1,6.5,10.4,17.5c0,0.1,0,0.2,0,0.3c0.1,4.3-1,8.2-2.5,12c-0.2,1.3-0.5,2.6-0.8,3.9c-1.3,10.3-3.7,21.1-10.5,29
	C239.1,122.1,237.8,121.4,237.8,120.5z M305,113.4c-0.1,0.4-0.4,0.7-0.7,0.9c-0.9,1.9-2.4,3.6-4.3,4.9c-1.2,0.7-2.7-0.2-2.7-1.6
	v-5.9c-0.4-1.9-0.3-4,0-6c0,0,0,0,0-0.1c0-4.9,0.2-9.7,0.7-14.5c-0.5-11.1,0-22.9,8.1-29.9c1.3-1.1,3.8-0.9,4.1,1.1
	c1.4,8.1,1.5,16.5,0.9,24.7c-0.2,2.5-0.8,4.8-1.6,7.1c-0.2,2.7-0.6,5.3-1.3,8C307.4,105.9,306.4,109.7,305,113.4z M308.5,142.2
	c3.7-2.4,7.6-4.4,11.3-6.7c1.1-0.7,2.7-0.3,3.4,0.9c1.7,3,2.8,7.1-0.3,9.7c-2.6,2.1-6.2,2-9.4,1.4h-3.1c-0.8,0-1.6-0.4-2-1.1
	C307.2,145.4,306.8,143.3,308.5,142.2z M374.4,198c-0.5-0.1-0.9-0.4-1.2-0.7c-0.8,0.1-1.7-0.2-2.3-1.1c-2.5-3.6-3.3-8.7-4-12.9
	c-1.1-6.2-1.9-12.5-2-18.7c0-3.2,0.2-9.5,2.4-13.7c0.3-2.5,1.2-4.8,3.1-6.5c2.5-2.3,7-2.5,9.9-1.1c7.6,3.7,8.6,13.9,9.5,21.3
	C391.2,177.1,394,201.2,374.4,198z"/>
<polygon fill="#FDFDFB" points="508.4,182.9 491.1,156.3 494.4,148.3 501.7,152.3 508.4,162.9 512.1,148.3 515.7,148.3 523.1,152.3 
	523.1,165.6 "/>
<polygon fill="#FDFDFB" points="501.7,140.3 507.1,140.3 519.7,15.6 495.1,15.6 "/>
<polygon fill="#64F8FA" points="63.1,73.3 75.1,69.3 97.1,166.6 115.1,128 120.5,128 123.1,162.5 158.5,95.3 163.8,69.3 197.1,69.3 
	197.1,82.3 171.1,82.3 166.5,104 134.5,162.5 127.1,176 121.8,176 114.5,151.3 99.1,182.5 90.5,182.5 67.1,87.3 55.8,91.6 
	37.1,82.3 44.5,69.3 54.5,76.6 "/>
<path fill="#64F8FA" d="M500.5,188.6l-7.3,4.7l-5.9-8l-4.1-15.3l-5-47.4v-9.2l-12.4-3.6l-11.3,12.8l-5.3-12.8h-8.7l-12,12.8l-3-4.6
	l-3.6-3.3l-7.3,0.7v7.2l-5.5,3.4h-9.1l-13.5-3.4h-12.5l-10.7,8.1l-6.7,18l-3.3,21.3l-7.3,18.7h-10l-4.7-9.3l-7.5-6.7l-9.1-15.9
	l17.2,0.6l8-11.3v-14l-4-6h-8.7l-14.7,8l11.2-25.3l3.5-26.3l-3.5-31.7l-4.5-15.4l-12.7-4.5l-6,14l-6,24.4v61.3l-9,14.7l-11,23.3
	l-16.7,7.3l-7.3-4l-2-9.4l1.3-17.9l6.7-12.7l14-31.3V69.3l-4.7-18.7l-13.3-10.7h-10l-6,15.3l2.7,76l-4,5.8l-3.3,6.9l-15.5,18.6
	l-25.2,9.4l-14-6l-3.3-13.3l0.7-6.7l29.3-3.3l4-6l-2.7-14.1l-10.7-6.6l-18,6.6l-10.7,6.1l-7.3,28.7l16.7,25.2l22,3.4l19.2-3.4
	l19.5-13.9l1.3,10l6.7,11.3l10.7,4.7l19.3-6.7l16-20.7l-4.4,41.3h13l2-37.3l10.7,18.7l16.1,14l12.5,4.7l15.3-5.3l6-24l2,12l4.5,22.2
	l13.5,3.2h14.7l10-8.7l3.1-25.4v-23.9l-5.1-14.7l-4-6.9h16.7v76.4h9l7.3-82.8l9.8-4.7l6.7,18l10-0.7l4-13.3l15,60.7l9.1,15.3h10.5
	l10-10L500.5,188.6z M180,132.2c4.6-6,16.9-9.1,20.1-0.2c0.4,1-0.2,2.3-1.1,2.8c-5.2,2.7-10.9,2.4-16.6,2.3c-1,0-1.7-0.5-2.1-1.2
	C179.2,135.1,179,133.6,180,132.2z M243.9,120.1c0-2.7,0.7-5.2,1-7.8c-0.2-0.5-0.3-1-0.1-1.7c0.7-2.2,0.8-4.6,1.2-6.9
	c0-0.4,0-0.7,0-1.1c0-0.6,0-1.1,0-1.7c-0.3-4.7-0.4-9.7-0.1-14.8c0-8.5,0.3-17,1.4-25.5c0.1-1.1,0.6-2.1,1.8-2.4
	c10.7-2.4,12.1,6.5,10.4,17.5c0,0.1,0,0.2,0,0.3c0.1,4.3-1,8.2-2.5,12c-0.2,1.3-0.5,2.6-0.8,3.9c-1.3,10.3-3.7,21.1-10.5,29
	C245.2,121.8,243.9,121.1,243.9,120.1z M311,113.1c-0.1,0.4-0.4,0.7-0.7,0.9c-0.9,1.9-2.4,3.6-4.3,4.9c-1.2,0.7-2.7-0.2-2.7-1.6
	v-5.9c-0.4-1.9-0.3-4,0-6c0,0,0,0,0-0.1c0-4.9,0.2-9.7,0.7-14.5c-0.5-11.1,0-22.9,8.1-29.9c1.3-1.1,3.8-0.9,4.1,1.1
	c1.4,8.1,1.5,16.5,0.9,24.7c-0.2,2.5-0.8,4.8-1.6,7.1c-0.2,2.7-0.6,5.3-1.3,8C313.5,105.6,312.4,109.4,311,113.1z M314.5,141.8
	c3.7-2.4,7.6-4.4,11.3-6.7c1.1-0.7,2.7-0.3,3.4,0.9c1.7,3,2.8,7.1-0.3,9.7c-2.6,2.1-6.2,2-9.4,1.4h-3.1c-0.8,0-1.6-0.4-2-1.1
	C313.2,145,312.9,142.9,314.5,141.8z M380.5,197.7c-0.5-0.1-0.9-0.4-1.2-0.7c-0.8,0.1-1.7-0.2-2.3-1.1c-2.5-3.6-3.3-8.7-4-12.9
	c-1.1-6.2-1.9-12.5-2-18.7c0-3.2,0.2-9.5,2.4-13.7c0.3-2.5,1.2-4.8,3.1-6.5c2.5-2.3,7-2.5,9.9-1.1c7.6,3.7,8.6,13.9,9.5,21.3
	C397.3,176.7,400,200.8,380.5,197.7z"/>
<polygon fill="#64F8FA" points="514.5,182.5 497.1,156 500.5,148 507.8,152 514.5,162.5 518.2,148 521.8,148 529.1,152 529.1,165.2 
	"/>
<polygon fill="#64F8FA" points="507.8,140 513.1,140 525.8,15.3 501.1,15.3 "/>
</svg>
