<?xml version="1.0" encoding="iso-8859-1"?>
<!-- Generator: Adobe Illustrator 18.1.0, SVG Export Plug-In . SVG Version: 6.00 Build 0)  -->
<svg version="1.1" xmlns="http://www.w3.org/2000/svg" xmlns:xlink="http://www.w3.org/1999/xlink" x="0px" y="0px"
	 viewBox="0 0 1920 217.353" style="enable-background:new 0 0 1920 217.353;" xml:space="preserve">
<g id="Golf2">
	<polygon style="fill:#2B7864;" points="259,141.02 296.333,120.444 315.873,96.353 335.667,73.687 355,56.808 374.816,41.917 
		388.273,34.426 404.636,27.717 426.333,21.687 440.333,21.687 456.333,21.687 471,21.687 487,34.426 497.364,47.02 503.667,62.262 
		506.333,76.808 506.333,87.02 500.333,104.353 497.364,109.02 482.333,114.99 467,111.687 456.333,107.687 463.667,98.353 
		465.667,93.02 467,84.081 463.667,76.808 448.333,76.808 439,84.081 435,98.353 433.667,111.02 433.667,120.444 437,130.353 
		450.333,141.02 468.333,143.687 497.364,147.687 543.667,128.353 571.5,107.02 598.333,84.081 629,56.808 649.667,27.717 
		663,17.02 679,11.02 702.333,7.687 719.667,11.02 751,22.353 767,34.426 778.333,52.353 783.667,65.899 783.667,84.081 
		783.667,98.353 772.333,111.687 753.667,114.99 761,99.687 757.667,87.02 752.333,76.808 732.333,76.808 721,87.02 
		717.667,103.687 717.667,114.99 729,141.687 737,152.92 751,164.353 763,164.353 783.667,164.353 801.667,148.353 871.667,84.081 
		891.667,65.899 906.333,52.353 927.5,41.687 969,29.687 993,25.426 1011,26.353 1028.618,31.926 1041,42.353 1054.333,56.808 
		1061,71.687 1061,87.02 1056.333,90.353 1049.667,84.081 1021,76.353 1001.667,79.02 986.333,90.353 983.194,97.736 981,102.353 
		977.667,124.353 981,138.626 989,148.353 999.667,152.187 1009,152.187 1031,152.187 1047.314,148.942 1119.667,107.687 
		1139,84.081 1157.667,54.353 1167.961,39.02 1180.333,27.687 1213,18.353 1239,16.353 1257.667,18.353 1279.182,34.426 
		1287.667,44.353 1291,58.626 1287,76.353 1276.333,87.02 1257,93.687 1247,93.687 1257,75.687 1257,65.899 1247.667,58.626 
		1224.636,65.899 1213,77.687 1211,92.353 1214.333,118.626 1221.996,131.494 1259.667,152.187 1279.182,157.687 1320.501,136.549 
		1346.333,105.899 1370.333,76.353 1395.667,58.626 1421,49.535 1452.333,43.687 1475,49.535 1489.667,55.687 1501.667,70.353 
		1508.333,86.02 1512.333,105.899 1504.333,121.687 1487.667,135.687 1477.667,139.687 1482.333,125.02 1479,105.899 
		1463.667,99.02 1453.667,99.687 1446.744,105.899 1446.333,121.687 1449,139.02 1460.333,152.187 1469.667,158.626 
		1512.333,160.444 1539.667,152.187 1569.667,143.687 1594.333,118.626 1617,99.02 1632.333,86.02 1647.667,75.02 1666.455,67.687 
		1681,63.02 1690.333,63.02 1706.455,65.687 1719.667,72.353 1719.667,75.687 1717,82.353 1697.667,82.353 1682.333,92.353 
		1675,109.687 1672.333,127.717 1680.333,152.187 1711.667,158.626 1737,152.187 1801,118.626 1812.333,97.02 1828.333,69.687 
		1844.333,54.353 1865,41.687 1887.653,42.455 1897.667,54.353 1899.595,69.855 1894.544,84.081 1883.667,87.02 1875.667,86.02 
		1881,79.02 1881.667,73.02 1872.333,72.353 1864.333,77.02 1863.667,91.687 1867,105.899 1879.667,118.626 1899.595,133.02 
		1920,135.02 1920,217.353 0,217.353 0,102.353 26.333,79.687 40.35,67.043 67.119,61.124 93.134,68.353 107.667,79.687 
		108.333,91.687 100.333,95.687 90.333,87.02 75,87.02 69,102.353 73.667,114.99 85.667,127.687 93.134,133.172 108.333,137.687 
		132.333,133.172 145.667,112.52 149.667,87.02 153.667,62.262 165,39.02 179,18.353 185.667,7.687 197.314,0 210.259,0 231,8.353 
		250.099,24.641 259.667,40.353 262.333,56.808 259.667,68.353 249,76.808 241,76.808 244.333,67.687 239.182,57.717 
		225.319,53.172 217.364,56.808 217.364,76.808 222.333,99.687 233.667,120.444 250.333,139.02 	"/>
</g>
<g id="Layer_1">
</g>
</svg>
