<?xml version="1.0" encoding="iso-8859-1"?>
<!-- Generator: Adobe Illustrator 18.1.0, SVG Export Plug-In . SVG Version: 6.00 Build 0)  -->
<svg version="1.1" xmlns="http://www.w3.org/2000/svg" xmlns:xlink="http://www.w3.org/1999/xlink" x="0px" y="0px"
	 viewBox="0 0 185 285.5" style="enable-background:new 0 0 185 285.5;" xml:space="preserve">
<g id="Pinguin3">
	<polygon style="fill:#FDFDFD;" points="39.526,221.218 8.071,221.218 0,241.833 2.278,243.648 43.5,276.5 113.5,262.326 175,272 
		178.227,238.667 185,232.5 135.5,215 	"/>
	<polygon style="fill:#040404;" points="113,0 106.5,0 87.318,8.5 72,40 51.5,79.182 45,103 37,135.5 31.5,159.5 35,201 42.5,234.5 
		48.25,250.667 53,255.5 68,251.5 84.833,241.833 89.241,244.875 97,247.582 107.5,252.5 119.071,249.334 128.5,223.5 138.5,187.5 
		141.5,73 137,50 128,15 125.5,4.636 	"/>
	<polygon style="fill:#FDFDFD;" points="118,10.5 121.5,17.5 119.75,68.273 119.75,159.5 118,198.323 118,217.364 111.686,240.01 
		106.27,243.69 100.586,247.582 97,247.582 87.318,239.5 82.618,239.259 76.5,241.833 70.167,244.667 66,237 63.682,224 69,159.5 
		78.5,120.5 90.5,68.273 102.5,23 109.5,13 114,10.5 	"/>
	<polygon style="fill:#EA4D09;" points="48.25,255.5 53,255.5 63.682,252.652 59.5,265.5 53.5,272 55.966,259.5 43,262.326 
		36.5,266.5 40.5,255.5 43,255.5 34.095,255.5 41,252.652 	"/>
	<polygon style="fill:#EA4D09;" points="107.5,252.5 126.5,252.5 133.5,255.5 126.5,247.582 135.5,247.582 126.5,244.5 127,239.5 
		121.809,241.833 119,245 	"/>
	<polygon style="fill:#82ECFF;" points="0,255.5 0,241.833 43.5,276.5 113.5,262.326 175,272 175,276.5 114,269.5 44,285.5 	"/>
	<polygon style="fill:#82ECFF;" points="185,232.5 185,238.667 178.227,241.833 178.227,238.667 	"/>
	<polygon style="fill:#44ABA5;" points="91.167,16 95.167,10.5 99.833,10.5 99.833,7.667 92.591,7.667 	"/>
</g>
<g id="Layer_1">
</g>
</svg>
