<?xml version="1.0" encoding="iso-8859-1"?>
<!-- Generator: Adobe Illustrator 18.1.0, SVG Export Plug-In . SVG Version: 6.00 Build 0)  -->
<svg version="1.1" xmlns="http://www.w3.org/2000/svg" xmlns:xlink="http://www.w3.org/1999/xlink" x="0px" y="0px"
	 viewBox="0 0 220.917 326.5" style="enable-background:new 0 0 220.917 326.5;" xml:space="preserve">
<g id="Pinguin1">
	<polygon style="fill:#FDFDFD;" points="47.533,256 0,264.75 7.5,277.5 1.75,297.25 95,307.25 105.5,316.5 190,321.75 203.25,292.5 
		168,277.5 166.625,277.5 48.75,256 	"/>
	<polygon style="fill:#040404;" points="193.583,0 172.25,3.182 164.25,8.636 130.917,57.727 113.818,76.439 98.25,99.818 
		75.583,148.073 48.917,246.818 45.523,269.333 45.523,279.606 54.917,283.333 84.25,271.333 112.25,262 115.583,265.833 
		125.583,280 131.583,298.667 144.25,307.333 154.614,307.333 163.583,286.818 186.917,215.333 215.583,133.333 220.917,96 
		216.917,80.667 220.917,41.364 214.917,21.333 206.25,8.636 198.25,0 	"/>
	<polygon style="fill:#FDFDFD;" points="198.917,31.333 186.25,35.333 175.583,41.364 162.25,61.333 144.25,94.667 128.917,127.333 
		122.25,141.364 100.917,190.455 96.25,206 87.713,236.667 87.713,252.667 95.583,256 108.917,250.667 121.583,251.333 129.583,256 
		136.917,256 146.917,236.667 159.583,200.667 192.917,104 207.583,57.727 210.977,41.364 	"/>
	<polygon style="fill:#43A7A1;" points="184.25,11.636 178.917,11.636 172.917,20.667 176,9.5 181.25,9.5 	"/>
	<polygon style="fill:#EE4A03;" points="45.523,279.606 32.25,277.5 24,279.606 25.5,281.25 42,283 41.75,286.818 38.5,297.25 
		45.523,295 50.25,286.818 55.25,289 63.75,292.25 65.75,294.25 65.75,290 54.917,283.333 	"/>
	<polygon style="fill:#EE4A03;" points="144.25,307.333 153,310.75 166.75,310.75 175.5,312.75 177.25,312.75 170.75,307.333 
		166,307.333 171.5,304.75 176.25,304.75 171.25,301.75 158.25,304.5 164.25,301.75 157.055,301.75 	"/>
	<polygon style="fill:#82ECFF;" points="0,272.75 0,264.75 7.5,277.5 6.088,282.349 	"/>
	<polygon style="fill:#82ECFF;" points="1.5,303.5 1.75,297.25 95,307.25 105.5,316.5 190,321.75 203.25,292.5 203.25,298.5 
		190.75,326.5 104.75,318.5 92.75,309.5 	"/>
</g>
<g id="Layer_1">
</g>
</svg>
