<?xml version="1.0" encoding="utf-8"?>
<!-- Generator: Adobe Illustrator 18.0.0, SVG Export Plug-In . SVG Version: 6.00 Build 0)  -->
<!DOCTYPE svg PUBLIC "-//W3C//DTD SVG 1.1//EN" "http://www.w3.org/Graphics/SVG/1.1/DTD/svg11.dtd">
<svg version="1.1" id="Laag_1" xmlns="http://www.w3.org/2000/svg" xmlns:xlink="http://www.w3.org/1999/xlink" x="0px" y="0px"
	 viewBox="0 0 1496.4 816.4" enable-background="new 0 0 1496.4 816.4" xml:space="preserve">
<polygon display="none" fill="none" stroke="#FDFDFB" stroke-miterlimit="10" points="288.7,23.6 200.7,-66.1 403.3,-7.5 "/>
<polygon display="none" fill="none" stroke="#000000" stroke-miterlimit="10" points="371.8,113.4 403.3,-7.5 288.7,23.6 "/>
<polygon fill="#EA4D09" points="1450.4,801.1 1462.6,732.9 1466.6,640.9 1448.6,550.7 1325,304.8 1244.7,173.1 1165.6,108.1 
	1012.9,70 904.5,45.1 780.4,43.4 623,59.6 433.6,145.5 259.3,283.6 163.1,407.3 80,555.6 46.1,654.5 29.6,744.3 32.8,793.6 
	60.5,793.6 49.1,699.8 101.3,555.6 164.8,426.5 272,300.8 452,167.2 570.1,103.2 745.2,59.6 833,59.6 971.1,80.2 1087.9,108.1 
	1173.1,140.7 1244.7,199.6 1298.6,288.6 1352.5,414.7 1394.6,517.8 1440.3,588.2 1437.7,686.3 1425.8,801.1 "/>
<polygon fill="#F7DA4B" points="79.6,797.5 60.5,781.3 67.8,665.1 94.8,573.6 159,438.3 272,300.8 410.8,197.7 533.4,125.9 
	596.3,93.7 723,70 788.3,66.3 884.2,59.6 971.1,80.2 1103.9,114.2 1159.8,135.6 1244.7,199.6 1298.6,288.6 1329.4,360.6 
	1337.9,380.3 1414.7,517.8 1440.3,588.2 1437.7,686.3 1425.8,801.1 1402,797.5 1422.6,640.9 1407.4,573.6 1367,450 1237.8,215.8 
	1121.2,128.9 943.3,84.3 802.9,73.8 671.8,95 557.1,128.9 420.6,212.9 320.6,291 254,345.4 189.8,422.3 144.2,511.4 111,595.3 
	80,665.1 "/>
<polygon fill="#65F44D" points="1367.1,797.5 1388.4,797.5 1411.4,676.1 1411.4,607.7 1383.5,511.4 1367,450 1270.2,274.4 
	1237.8,215.8 1121.2,128.9 927.3,82.4 802.9,73.8 671.8,95 557.1,128.9 522.7,149.6 456.4,189.3 399.6,230.8 368.9,253.2 254,345.4 
	189.8,422.3 138.2,526.6 80,665.1 76.8,786.3 94.7,786.3 94.7,666.6 161.5,523.6 230,397 294.9,332 560.8,153.9 623,128.9 
	738.8,100.9 813.3,95 907.7,100.9 1002.9,118.1 1101.2,152.5 1186.5,199.6 1237.8,249.7 1298.6,361.6 1352.5,458.2 1373.6,553.6 
	1390,640.9 1390,691 1383.5,774.4 "/>
<polygon fill="#4BBCDB" points="112.7,783.7 91.5,762.5 97.4,640.9 218.6,419.1 294.9,332 515,173.1 585.7,142.1 775.8,95 
	907.7,100.9 1002.9,118.1 1137.5,167.2 1223.5,232 1285,336.6 1352.5,458.2 1373.6,553.6 1390,669.7 1386.7,754.9 1388.4,797.5 
	1352.5,797.5 1370.4,647.4 1352.5,526.6 1329.7,446.1 1292,372 1207.7,236.4 1079.4,161.6 927.3,115.6 848.1,115.6 754.6,115.6 
	645.4,145.5 560.8,170.1 487.2,215.8 397.8,285 306.5,345.4 254,411.7 203.8,489.8 146.9,588.2 117,659.4 122.4,748.9 "/>
<polygon fill="#904CD8" points="1326.4,797.5 1352.5,797.5 1370.4,647.4 1338.8,478 1332.8,457.2 1292,372 1207.7,236.4 
	1079.4,161.6 927.3,115.6 767.6,114.2 645.4,145.5 560.8,170.1 487.2,215.8 306.5,345.4 241.4,426.5 155.2,573.8 117,659.4 
	122.4,762.5 122.4,801.1 144.2,797.5 131.5,669.6 146.9,625 218.6,499.7 282.4,402.8 347.9,332 457.6,261.5 550.3,199.6 
	601.3,177.8 683,156 767.6,128.9 835.5,128.9 907.7,136.4 1010.1,152.5 1087.9,180.4 1152.1,221.7 1202.6,258.5 1244.7,332 
	1285.7,410.3 1315.1,478 1326.4,523.6 1352,592.9 1352.5,648.2 "/>
<polygon fill="#FC331F" points="1450.4,801.1 1459.7,749.1 1466.6,640.9 1448.6,550.7 1413.9,481.7 1353.9,362.3 1299.2,262.5 
	1244.7,173.1 1165.6,108.1 1070.7,84.4 904.5,45.1 767.1,44.2 623,59.6 526.8,103.3 433.6,145.5 303.8,248.3 249,287.9 188.7,376.7 
	128.2,469.6 70.6,590.2 45.2,668.8 29.6,744.3 32.8,793.6 16.5,723.1 37,641.7 63.8,569 104.1,487.1 154.1,411.9 203.4,339.5 
	267,262.5 327,213.3 374.7,181.9 449,127.4 516,90.4 582.2,64.8 643.6,48.2 706.2,37.3 763.2,33.5 835.2,31.8 887.6,33.5 
	957.9,39.3 1006.7,57.6 1111.3,80.5 1187.1,104.6 1250.2,155.6 1272.1,193.2 1318.2,268.3 1345.5,322.3 1373.7,379.7 1407.2,429.4 
	1428.7,487.1 1466.6,563.4 1466.6,602.5 1478.1,688.4 1478.1,712.5 1466.6,783.9 1466.6,801.1 "/>
</svg>
