<?xml version="1.0" encoding="iso-8859-1"?>
<!-- Generator: Adobe Illustrator 18.1.0, SVG Export Plug-In . SVG Version: 6.00 Build 0)  -->
<svg version="1.1" xmlns="http://www.w3.org/2000/svg" xmlns:xlink="http://www.w3.org/1999/xlink" x="0px" y="0px"
	 viewBox="0 0 295.5 74.5" style="enable-background:new 0 0 295.5 74.5;" xml:space="preserve">
<g id="Siene_x5F_oranje">
	<path style="fill:#EE4A03;" d="M279,13.273L277.5,31.5l-3.5,5.216L269.5,40l-8.409,2l-8.591,0.5L249,40l10.273-16.5l4.227-6
		l-2.409-4.227L259.273,11L239.5,13.273h-4L233,19.5l-1,8.318L234,34l2.5,5.5l-16,12H217l-2-3.5l-8.5-20.182l-7.227-3.318L190,23
		l-7.5,1.5L178,21l-4-0.5l-6.5,1l-7,6.318L154,42.5l-6.25,14L140,62l-4.364,0.5L132,61l-3.5-6.5L128,51l19.75-20l2.25-3.182V24.5
		L139.5,18H128l-7,2.5l-3.545,7.318L112,37.25V47L93,58.727L91,55.5V52l4.897-26L83,27.818L68,44.5l-12.5,10L53,55l2-15l-4.5-8
		l-5.773-6.5L42.909,18v-2.5l3.591-2.227H51L54.5,21L67,17.5V13L54.5,2.333L42.909,0L35.5,2.333L28.5,8L26,13v5.5l4.5,9.318
		l4.5,8.898l2,4.784l0.5,4l-3,6L26,56h-7.5L16,50v-3.5l6-7.5L4.5,28L0,36.716V61l8,7l7.5,4L28,74.5h14.909L54.5,69L67,62.5L78,52
		l-2.5,13l2.5,6.5l4.5,3H86L98.5,68l7-4l9-8l2.955,9.5l6.045,9h19l10-8.5l4.864-7.273L166,49.5l4.5-12.25V33l4.5-1.5V34l-3,37h13.5
		V41.5l3.5-4.25l3.5-0.534l6.773,0.534V41l2.227,7v13l4,7l4,2h6l6-2.5l6.5-6L240,51l21.091,3.5L267,53l9.5-3.5l8-7.5l7.5-17.5
		l3.5-17L279,13.273z M123.12,38.646c-0.517-1.261,0.249-4.583,0.456-5.314c1.365-4.799,5.392-8.175,10.424-8.346
		c2.004-0.068,3,2.159,2.171,3.783c-2.209,4.322-5.312,7.781-9.402,10.402C124.203,40.815,123.508,40.253,123.12,38.646z
		 M246.278,29.778c-1.076,0.846-2.5,1.055-3.555,0c-0.544-0.544-0.824-1.446-0.709-2.256c-0.807-0.6-1.136-1.647-0.938-2.69
		c0.368-1.935,1.371-3.826,3.082-4.895c1.708-1.068,3.573-1.136,5.51-0.861c1.248,0.177,2.231,1.935,1.756,3.092
		C250.252,25.022,248.748,27.835,246.278,29.778z"/>
	<polygon style="fill:#EE4A03;" points="85.333,21.667 95.897,20 95.897,12.333 94.333,8.333 90.615,8.333 87.333,11.333 	"/>
</g>
<g id="Layer_1">
</g>
</svg>
