<?xml version="1.0" encoding="iso-8859-1"?>
<!-- Generator: Adobe Illustrator 18.1.0, SVG Export Plug-In . SVG Version: 6.00 Build 0)  -->
<svg version="1.1" xmlns="http://www.w3.org/2000/svg" xmlns:xlink="http://www.w3.org/1999/xlink" x="0px" y="0px"
	 viewBox="0 0 296.668 75.516" style="enable-background:new 0 0 296.668 75.516;" xml:space="preserve">
<g id="Siene_x5F_wit">
	<path style="fill:#FFFFFF;stroke:#FFFFFF;stroke-miterlimit:10;" d="M279.5,13.788L278,32.016l-3.5,5.216l-4.5,3.284l-8.409,2
		l-8.591,0.5l-3.5-2.5l10.273-16.5l4.227-6l-2.409-4.227l-1.818-2.273L240,13.788h-4l-2.5,6.227l-1,8.318l2,6.182l2.5,5.5l-16,12
		h-3.5l-2-3.5L207,28.334l-7.227-3.318l-9.273-1.5l-7.5,1.5l-4.5-3.5l-4-0.5l-6.5,1l-7,6.318l-6.5,14.682l-6.25,14l-7.75,5.5
		l-4.364,0.5l-3.636-1.5l-3.5-6.5l-0.5-3.5l19.75-20l2.25-3.182v-3.318l-10.5-6.5h-11.5l-7,2.5l-3.545,7.318l-5.455,9.432v9.75
		l-19,11.727l-2-3.227v-3.5l4.897-26L83.5,28.334l-15,16.682l-12.5,10l-2.5,0.5l2-15l-4.5-8l-5.773-6.5l-1.818-7.5v-2.5L47,13.788
		h4.5l3.5,7.727l12.5-3.5v-4.5L55,2.849L43.409,0.516L36,2.849l-7,5.667l-2.5,5v5.5l4.5,9.318l4.5,8.898l2,4.784l0.5,4l-3,6
		l-8.5,4.5H19l-2.5-6v-3.5l6-7.5l-17.5-11l-4.5,8.716v24.284l8,7l7.5,4l12.5,2.5h14.909L55,69.516l12.5-6.5l11-10.5l-2.5,13l2.5,6.5
		l4.5,3h3.5l12.5-6.5l7-4l9-8l2.955,9.5l6.045,9h19l10-8.5l4.864-7.273l8.636-9.227l4.5-12.25v-4.25l4.5-1.5v2.5l-3,37H186v-29.5
		l3.5-4.25l3.5-0.534l6.773,0.534v3.75l2.227,7v13l4,7l4,2h6l6-2.5l6.5-6l12-10.5l21.091,3.5l5.909-1.5l9.5-3.5l8-7.5l7.5-17.5
		l3.5-17L279.5,13.788z M123.62,39.161c-0.517-1.261,0.249-4.583,0.456-5.314c1.365-4.799,5.392-8.175,10.424-8.346
		c2.004-0.068,3,2.159,2.171,3.783c-2.209,4.322-5.312,7.781-9.402,10.402C124.703,41.33,124.008,40.768,123.62,39.161z
		 M246.778,30.293c-1.076,0.846-2.5,1.055-3.555,0c-0.544-0.544-0.824-1.446-0.709-2.256c-0.807-0.6-1.136-1.647-0.938-2.69
		c0.368-1.935,1.371-3.826,3.082-4.895c1.708-1.068,3.573-1.136,5.51-0.861c1.248,0.177,2.231,1.935,1.756,3.092
		C250.752,25.538,249.248,28.351,246.778,30.293z"/>
	<polygon style="fill:#FFFFFF;stroke:#FFFFFF;stroke-miterlimit:10;" points="87.089,12.349 85.089,22.682 95.653,21.016 
		98.038,10.849 96.038,8.516 91.564,8.516 	"/>
</g>
<g id="Layer_1">
</g>
</svg>
