<?xml version="1.0" encoding="utf-8"?>
<!-- Generator: Adobe Illustrator 18.0.0, SVG Export Plug-In . SVG Version: 6.00 Build 0)  -->
<!DOCTYPE svg PUBLIC "-//W3C//DTD SVG 1.1//EN" "http://www.w3.org/Graphics/SVG/1.1/DTD/svg11.dtd">
<svg version="1.1" id="Laag_1" xmlns="http://www.w3.org/2000/svg" xmlns:xlink="http://www.w3.org/1999/xlink" x="0px" y="0px"
	 viewBox="0 0 982 868.5" enable-background="new 0 0 982 868.5" xml:space="preserve">
<polygon fill="#C9AEF4" points="326.8,699.8 293.2,677.5 255.3,691.2 231.2,712 234.6,745.5 272.2,761.9 294.2,752.7 268.4,793.4 
	281.3,809.1 333,815.3 350.5,791.2 386.6,821.8 420.3,825.8 458.2,796.2 479.9,833 509.7,836.6 560,820.5 593.8,846.8 626.8,850.7 
	659.2,820.5 662.1,797 700.4,825.5 752,831.7 768.3,797 800.6,825.6 831.8,829.4 853.1,807.3 868.3,765.1 896.3,750.2 914.4,716.7 
	895.3,679.7 850.4,675.7 832.9,694.3 801.2,668.3 758.7,653.8 734.9,672.1 718.8,689.4 661.4,651.4 616.6,657.9 591.3,677.7 
	566.1,644 516.6,645.8 483.7,674.3 465.7,658.9 419.1,670.6 402.4,708.9 388.2,676.1 350.3,671.5 "/>
<polygon display="none" fill="none" stroke="#FDFDFB" stroke-miterlimit="10" points="119.3,29.7 31.3,-60 233.8,-1.4 "/>
<polygon display="none" fill="none" stroke="#000000" stroke-miterlimit="10" points="202.4,119.5 233.8,-1.4 119.3,29.7 "/>
<polygon fill="#EBE4F4" points="365.1,349.7 374.2,335.2 392.4,324.3 432.4,324.3 477.8,337 548.7,349.7 634.2,349.7 663.3,324.3 
	692.4,293.4 717.8,257 737.8,222.5 754.2,189.7 741.5,162.5 765.1,107.9 781.5,140.6 781.5,175.2 781.5,184.3 792.6,188.5 
	810.5,195.2 856,228.8 890.5,237 906.9,237 914.2,251.5 914.2,264.3 914.2,280.6 870.5,297 794.2,300.6 746.9,404.3 734.2,471.5 
	717.8,522.5 832.4,615.2 852.4,633.4 874.2,647.9 906.9,667.9 894.2,689.7 803.3,635.2 686.9,557 768.7,637 841.5,704.3 821.5,717 
	614.2,537 543.3,509.7 448.7,515.2 376,598.8 303.3,658.8 139.6,627.9 139.6,609.7 285.1,602.5 354.2,482.5 352.4,398.8 "/>
<polygon fill="#C9AEF4" points="823.3,129.7 799.6,151.5 781.5,184.3 810.5,195.2 834.2,182.5 "/>
<polygon fill="#E8D9F9" points="686.9,557 597.1,530.4 812.9,709.6 841.5,704.3 "/>
<polygon fill="#E8D9F9" points="448.7,515.2 408.7,638.8 328.7,742.5 316,742.5 390.5,620 382.4,580.6 "/>
<polygon fill="#E8D9F9" points="384.2,361.2 379.2,315.5 335.5,293.7 277.4,302.8 211.9,359.2 171.9,379.2 117.4,379.2 79.2,366.5 
	57.4,344.6 57.4,370.1 70.1,379.2 37.4,370.1 21,336.5 21,371.9 59.2,415.5 144.6,451.9 200.1,459.2 273.7,459.2 321,436.5 
	365,393.4 "/>
<polygon fill="#E8D9F9" points="741.5,162.5 697.8,138.8 659.6,138.8 621.5,150.6 578.7,169.7 660.1,169.7 621.5,195.2 660.1,207.9 
	578.7,231.5 570.5,231.5 617.8,244.3 626.9,266.1 552.4,266.1 526.9,266.1 557.8,282.5 634.2,282.5 608.7,313.4 566.9,313.4 
	614.2,331.5 578.7,338.8 536,338.8 548.7,349.7 634.2,349.7 692.4,293.4 737.8,222.5 754.2,189.7 "/>
<polygon fill="#2B1549" points="139.6,609.7 108.7,609.7 108.7,655.2 139.6,627.9 "/>
<polygon fill="#2B1549" points="316,742.5 306.9,758.8 354.2,766.1 328.7,742.5 "/>
<polygon fill="#2B1549" points="812.9,709.6 841.5,704.3 881.5,704.3 831.5,729.7 812.9,717 "/>
<polygon fill="#2B1549" points="894.2,689.7 906.9,667.9 945.1,667.9 919.6,689.7 914.2,704.3 "/>
<polygon fill="#DCE3F7" points="612,357.6 564.4,366.5 524,369 428.8,327.8 423.8,312.2 418.8,296.6 430.1,293 458.5,301.1 
	395.1,252.1 383.3,239.2 378.4,223.6 391.7,211.7 435.3,222.6 452.3,233.9 383.2,140 382.2,104.1 396,99.6 417.7,113.7 452.4,144.6 
	441.7,102.2 448,83 468.8,76.4 498.5,91.7 509.6,126.4 520.5,77.1 532.2,65.7 538.1,54.3 561.9,60.1 562.2,100 564.9,156.4 
	583.4,127.6 604.8,134.1 612.8,166 615.5,228.1 622.4,336.6 "/>
<polygon fill="#E9ECF4" points="578.7,349.7 597.1,178.3 578.7,169.7 568.7,211.6 545.1,117 526.9,117 526.9,178.3 488.7,129.7 
	477.8,129.7 486.9,195.2 434.2,155.2 417.8,155.2 474.2,211.6 485.1,233.4 492.4,255.2 432.4,244.3 432.4,253.4 486.9,284.3 
	500.4,304.3 490.5,313.4 448.7,313.4 461.5,326.1 543.3,358.8 526.9,186.1 "/>
<polygon fill="#E9ECF4" points="773.5,184.3 826.2,20.6 802.5,195.2 "/>
<polygon fill="#E8D9F9" points="781.5,155.2 841.5,162.5 850.5,175.2 816,175.2 861.5,195.2 881.5,195.2 819,201.5 781.5,184.3 "/>
<polygon points="847.2,257 870.5,271.5 881.5,271.5 905.1,271.5 914.2,251.5 914.2,280.6 881.5,280.6 847.2,266.1 "/>
<polygon points="797.8,224.3 781.5,211.6 770.5,218 763.3,237.9 780.5,224.8 "/>
<polygon points="812.9,224.8 812.9,211.6 819,201.5 831.5,210.7 822.2,213.1 "/>
<polygon fill="#C9AEF4" points="878,249.5 874,244.3 867.5,244.3 867.5,249.5 872.8,254 "/>
<polygon fill="#C9AEF4" points="904,244.3 899.5,242 896,243.1 896,247.5 896,251.5 900,251.5 904,249.1 "/>
<polygon fill="#C9AEF4" points="430,349.7 417.8,369 394,358.8 404,376.5 394,412.5 417.8,390 448.7,412.5 432,381.1 464,376.5 
	429,369 "/>
</svg>
