<?xml version="1.0" encoding="utf-8"?>
<!-- Generator: Adobe Illustrator 18.0.0, SVG Export Plug-In . SVG Version: 6.00 Build 0)  -->
<!DOCTYPE svg PUBLIC "-//W3C//DTD SVG 1.1//EN" "http://www.w3.org/Graphics/SVG/1.1/DTD/svg11.dtd">
<svg version="1.1" id="Laag_1" xmlns="http://www.w3.org/2000/svg" xmlns:xlink="http://www.w3.org/1999/xlink" x="0px" y="0px"
	 viewBox="0 0 272.7 207.3" enable-background="new 0 0 272.7 207.3" xml:space="preserve">
<polygon fill="#FDFDFB" stroke="#FDFDFB" stroke-width="3" stroke-miterlimit="10" points="51.6,12.1 254.2,70.7 222.7,191.5 
	25.1,149 "/>
<polygon display="none" fill="none" stroke="#FDFDFB" stroke-miterlimit="10" points="139.7,101.8 51.6,12.1 254.2,70.7 "/>
<polygon fill="none" stroke="#000000" stroke-miterlimit="10" points="139.7,101.8 51.6,12.1 254.2,70.7 "/>
<polygon display="none" fill="none" stroke="#000000" stroke-miterlimit="10" points="222.7,191.5 254.2,70.7 139.7,101.8 "/>
<g>
	<path fill="none" stroke="#F7819A" stroke-width="4" stroke-miterlimit="10" d="M63.7,80.9c2-0.6,4.1,0.5,5.4,2.1
		c1.3,1.6,1.8,3.6,2.3,5.6c0.5,2.4,0.9,4.9,0.9,7.4c0.1,4-0.7,8-0.7,12c0,4,0.8,8.2,3.5,11.2c5.9-4.8,9.2-11.9,12.2-18.8
		c2.9-6.6,5.9-13.2,8.8-19.7c0.2,3.1,3.5,5.6,6.5,4.9c0.8-0.7,1.3-1.8,1.3-3"/>
	<path fill="none" stroke="#F7819A" stroke-width="4" stroke-miterlimit="10" d="M83.6,117c7.4,0.5,15-3.2,19.1-9.4
		c-2.2-2.7-6.7-2-9.1,0.5c-2.4,2.5-3,6.1-3.4,9.5c-0.2,1.3-0.3,2.6,0.2,3.9c0.7,1.7,2.4,2.8,4.1,3.2c3.2,0.8,6.6-0.3,9.3-2.2
		c2.7-1.9,4.8-4.4,6.9-7c1.4-1.7,2.7-3.3,4.1-5c-2.5,7.5-4.9,15-7.4,22.5c-0.6-6.8,2.4-13.9,7.8-18.2c1.5-1.2,3.9-2.2,5.3-0.8
		c0.2,0.8,0.4,1.7,0.6,2.5"/>
	<path fill="none" stroke="#F7819A" stroke-width="4" stroke-miterlimit="10" d="M139.3,119.3c0.7-2.1,0.9-4.4,0.6-6.5
		c-2.6-1.3-5.4-2-8.2-2.2c-1.7,2.9-1.8,6.6-0.5,9.7c0.6,1.3,1.4,2.5,2.1,3.8c2.7,5.2,2.2,11.9-1.3,16.6c-4.6,1.1-9.7-2.5-10.4-7.1
		c-0.1-0.5-0.1-1,0-1.5c0.3-1.2,1.7-2.1,3-1.8s2.1,1.7,1.8,3"/>
	<path fill="none" stroke="#F7819A" stroke-width="4" stroke-miterlimit="10" d="M154.1,96.9c-0.3,7.1-2.6,14-4.9,20.7
		c-1.4,4.1-2.8,8.3-4.2,12.4c-0.8,2.3-1.6,4.8-1.2,7.2c0.4,2.4,2.4,4.8,4.8,4.7c3-0.1,4.7-3.7,4.5-6.6"/>
	<path fill="none" stroke="#F7819A" stroke-width="4" stroke-miterlimit="10" d="M144.8,103.9c4.7,1.4,9.4,2.8,14.1,4.1"/>
	<path fill="none" stroke="#F7819A" stroke-width="4" stroke-miterlimit="10" d="M166.3,120.1c-1.5,5-3.1,9.9-4.6,14.9
		c-0.9,3-1.6,7,1,8.8c1.8,1.3,4.5,0.6,6.1-0.9c1.6-1.5,2.5-3.7,3.3-5.7c1.7-4.3,3.4-8.7,5.1-13c-1.6,4.8-3.1,9.6-4.7,14.4
		c-0.5,1.4-0.9,2.9-0.7,4.3c0.2,1.5,1.2,2.9,2.7,3.1"/>
	<path fill="none" stroke="#F7819A" stroke-width="4" stroke-miterlimit="10" d="M184.9,126.1c-1.2,6.3-2.4,12.6-3.5,18.9
		c-0.3,1.3-0.5,2.9,0.4,4c1,1.4,3.3,1.3,4.6,0.2c1.4-1,2.1-2.7,2.8-4.2c1.6-3.7,3.2-7.4,4.8-11.1c-1.5,5.6-3,11.2-4.5,16.8
		c-0.2,0.8-0.4,1.8,0.1,2.4s1.9,0.5,1.8-0.3"/>
	<path fill="none" stroke="#F7819A" stroke-width="4" stroke-miterlimit="10" d="M192.2,161.4c2.5-0.3,4.9-1.7,6.3-3.9
		c1.3-2,1.8-4.4,2.2-6.8c1.1-6,2.1-11.9,3.2-17.9c-0.4,3.5-0.8,7.1-1.1,10.6c-0.2-2.2,1.1-4.4,3.1-5.4s4.5-0.5,6.1,1.1"/>
</g>
<polygon fill="none" stroke="#000000" stroke-miterlimit="10" points="254.2,70.7 222.7,191.5 25.1,149 51.6,12.1 "/>
</svg>
