<?xml version="1.0" encoding="iso-8859-1"?>
<!-- Generator: Adobe Illustrator 18.1.0, SVG Export Plug-In . SVG Version: 6.00 Build 0)  -->
<svg version="1.1" xmlns="http://www.w3.org/2000/svg" xmlns:xlink="http://www.w3.org/1999/xlink" x="0px" y="0px"
	 viewBox="0 0 162 86.5" style="enable-background:new 0 0 162 86.5;" xml:space="preserve">
<g id="Vis2">
	<polygon style="fill:#EA4D09;" points="44,46 65.961,23.273 91,14.182 114.5,14.182 135,14.182 145,19.5 154,23.273 159.5,23.273 
		162,23.273 162,27 157.5,28 162,30.545 162,34 159,35 154,34 145.5,35.5 127,36 107.5,38 78,46 44,58.5 38.5,83.273 31.5,86.5 
		31.5,55.443 5.5,33 8.5,26 16.5,28 	"/>
	<path style="fill:#EA4D09;" d="M107,23.273"/>
	<polygon style="fill:#962C0F;" points="107,17.5 96.5,6.75 74,2.75 91,14.182 67.5,10.125 78.5,17.5 65.961,20.5 90,25.5 	"/>
	<polygon style="fill:#962C0F;" points="120.5,14.182 111.5,0 111.5,9.5 97,4.041 107.5,14.182 100,10.5 102.5,14.182 	"/>
	<polygon style="fill:#962C0F;" points="44,46 16.5,28 0,25.5 0,30.545 13.299,39.732 27.125,51.667 0,59.5 31.5,61 29.082,83.273 
		29.082,86.5 38.5,83.273 44,56 48,48 	"/>
	<polygon style="fill:#962C0F;" points="148.525,25.5 157.5,28 162,27 158.5,30.545 151.762,28.023 	"/>
	<polygon style="fill:#FDFDFD;" points="132.5,17 127.5,14.182 122.636,17 122.636,19.5 122.636,23.273 127.5,25.5 132.5,25.5 	"/>
	<polygon style="fill:#040404;" points="125.568,17.841 125.5,23.5 130.5,20.67 128,17.841 	"/>
	<polygon style="fill:#962C0F;" points="104.579,38.792 97,53.5 91.5,46.146 83.75,50.341 83.75,46.146 78,46 97,38.792 	"/>
</g>
<g id="Layer_1">
</g>
</svg>
