<?xml version="1.0" encoding="iso-8859-1"?>
<!-- Generator: Adobe Illustrator 18.1.0, SVG Export Plug-In . SVG Version: 6.00 Build 0)  -->
<svg version="1.1" xmlns="http://www.w3.org/2000/svg" xmlns:xlink="http://www.w3.org/1999/xlink" x="0px" y="0px"
	 viewBox="0 0 193.667 93.273" style="enable-background:new 0 0 193.667 93.273;" xml:space="preserve">
<g id="Vogel2">
	<polygon style="fill:#64F8FA;" points="23.606,28.818 35,14.409 29.303,14.409 23.606,10.636 23.606,6 32.546,1.785 36.333,0 
		40.333,0 49,6 52.304,8.891 95,14.409 116.333,24.667 137,32 156.333,34.667 173.667,21.333 181.667,14.409 185.667,14.409 
		185.667,24 185.667,37.909 190.333,37.909 193.667,41.333 193.667,44.667 188.333,50.636 175.667,53.333 178.333,65.182 
		179.667,70.636 175.667,74.273 171,74.273 162.333,65.182 161.667,74.273 159,78 153,74.273 145.667,50.636 101,62 83.667,65.182 
		73,62 54.333,54.667 45,42.667 41,33.333 	"/>
	<polygon style="fill:#FD8F99;" points="0,14.333 23.606,6 23.606,10.636 29.303,14.409 35,14.409 23.606,19 	"/>
	<polygon style="fill:#FEB0B7;" points="23.606,28.818 35,14.409 23.606,19 0,14.333 	"/>
	<polygon style="fill:#FEB0B7;" points="83.667,65.182 98.667,93.273 98.667,85 108.636,85.667 	"/>
	<polygon style="fill:#FEB0B7;" points="91.997,63.653 124,85 116.667,73.273 124,69.636 	"/>
	<polygon style="fill:#081C1C;" points="34.667,9.636 40,6 44,12.5 39.333,9.636 	"/>
</g>
<g id="Layer_1">
</g>
</svg>
