<?xml version="1.0" encoding="iso-8859-1"?>
<!-- Generator: Adobe Illustrator 18.1.0, SVG Export Plug-In . SVG Version: 6.00 Build 0)  -->
<svg version="1.1" xmlns="http://www.w3.org/2000/svg" xmlns:xlink="http://www.w3.org/1999/xlink" x="0px" y="0px"
	 viewBox="0 0 154.485 92.121" style="enable-background:new 0 0 154.485 92.121;" xml:space="preserve">
<g id="Vogel1_x5F_vleugel2">
	<polyline style="fill:#51D2D4;" points="0,76.994 33.606,92.121 37.818,92.121 52.273,92.121 76.485,84.558 120.485,76.994 
		120.485,72.515 120.485,68.515 141.818,55.758 150.909,49.47 154.485,38.333 154.485,35.371 150.909,35.371 121.151,44 
		133.151,31.182 133.818,19.227 126.485,19.227 118.485,28.485 118.485,13.939 115.151,6.667 112.485,0 109.151,0 106.485,6.667 
		103.151,19.227 98.485,25.182 81.151,35.371 62.939,35.371 52.273,43.182 13.151,55.758 0,76.994 0,76.994 0,76.994 	"/>
</g>
<g id="Layer_1">
</g>
</svg>
