<?xml version="1.0" encoding="iso-8859-1"?>
<!-- Generator: Adobe Illustrator 18.1.0, SVG Export Plug-In . SVG Version: 6.00 Build 0)  -->
<svg version="1.1" xmlns="http://www.w3.org/2000/svg" xmlns:xlink="http://www.w3.org/1999/xlink" x="0px" y="0px"
	 viewBox="0 0 106 90.455" style="enable-background:new 0 0 106 90.455;" xml:space="preserve">
<g id="Vogel1_x5F_Vleugel1">
	<g id="Vogel1_x5F_vleugel1">
		<polygon style="fill:#64F8FA;" points="106,71.788 106,75.788 90.667,79.121 8.424,27.121 2.667,21.818 0,11.121 2.667,0 8.424,0 
			13.333,1.818 17.333,7.121 17.333,14.545 25.333,21.818 24.667,11.788 26,7.121 27.333,1.818 32.667,1.818 34.667,10.455 
			36.667,21.818 40,29.121 		"/>
		<polygon style="fill:#51D2D4;" points="90.667,79.121 23.333,90.455 14,87.273 5.333,84.788 2.667,79.121 8.424,71.788 18,69.091 
			8.424,66.455 2.667,66.455 2.667,59.788 2.667,54.545 8.424,50.455 13.333,47.273 2.667,39.455 0,36.455 0,32.727 0,27.121 
			4.667,27.121 12,32.727 		"/>
	</g>
</g>
<g id="Layer_1">
</g>
</svg>
