<?xml version="1.0" encoding="iso-8859-1"?>
<!-- Generator: Adobe Illustrator 18.1.0, SVG Export Plug-In . SVG Version: 6.00 Build 0)  -->
<svg version="1.1" xmlns="http://www.w3.org/2000/svg" xmlns:xlink="http://www.w3.org/1999/xlink" x="0px" y="0px"
	 viewBox="0 0 992.5 638.727" style="enable-background:new 0 0 992.5 638.727;" xml:space="preserve">
<g id="Wolk2">
	<polygon style="fill:#55B1AC;" points="547.065,49.977 557.136,31.227 581.563,17.733 606.227,16.182 635.56,24.227 
		653.559,34.545 671.682,54.545 680.773,76.364 680.773,86.477 697.057,70.909 709.057,54.545 731.682,54.545 746.555,59.758 
		767.554,76.364 767.554,86.477 767.554,98.727 767.554,125.455 800.5,109.091 824.409,104.971 838.955,109.091 860.773,120.386 
		860.773,140.816 860.773,149.091 898.955,139.316 929.864,143.815 929.864,158.182 929.864,183.636 922.046,201.818 953.5,192.727 
		973.5,192.727 992.5,201.818 992.5,638.727 6.75,638.727 0,613.292 0,592.293 0,568.294 24.409,549.091 49.5,549.091 
		68.492,549.091 58.996,527.273 49.5,503.797 49.5,480 53.5,458.8 65.5,446.8 78.955,440.801 100.58,437.732 111.682,437.801 
		78.955,410.909 78.955,391.303 78.955,377.804 88.917,353.805 102.167,347.805 111.682,346.305 126.5,344.805 111.682,316.364 
		102.167,300 102.167,267.273 111.682,260.81 126.5,248.81 151.75,247.31 142.591,224.811 142.591,208.312 162.5,192.727 
		172,192.727 188.045,192.727 206.582,201.818 205.082,167.273 215.5,139.316 230.581,120.386 244.75,109.091 268.045,109.091 
		280.078,109.091 307.077,120.386 305.577,97.135 310.077,70.909 317.5,59.758 340.075,52.727 361.074,52.727 395.572,59.758 
		413.5,70.909 427.071,31.227 446.227,12.33 480.773,0 517.136,9.227 	"/>
</g>
<g id="Layer_1">
</g>
</svg>
