<?xml version="1.0" encoding="iso-8859-1"?>
<!-- Generator: Adobe Illustrator 18.1.0, SVG Export Plug-In . SVG Version: 6.00 Build 0)  -->
<svg version="1.1" xmlns="http://www.w3.org/2000/svg" xmlns:xlink="http://www.w3.org/1999/xlink" x="0px" y="0px"
	 viewBox="0 0 1920 462.364" style="enable-background:new 0 0 1920 462.364;" xml:space="preserve">
<g id="Wolk1">
	<polygon style="fill:#7AD7D2;" points="295.545,118.182 313.623,90.909 328.622,78.182 345.121,78.182 362.818,78.182 381,90.909 
		381,98.182 388.273,63.636 404.636,40.948 418.618,23.636 435.117,14.545 457.616,14.545 479.182,21.818 489.114,29.091 
		507.113,48.448 517.364,54.545 544.611,14.545 571.5,0 599.182,1.818 624.636,14.545 624.636,36.448 637.364,54.545 
		654.106,36.448 676.605,29.091 702.818,29.091 726.102,45.448 735.545,54.545 735.545,70.947 748.273,89.091 762.1,63.636 
		794,42.448 828.5,42.448 853.596,54.545 877.364,78.182 881,100.945 907.593,78.182 934.25,54.545 962.818,48.448 993,46.948 
		1012.5,63.636 1029.667,78.182 1029.667,99.445 1066,90.909 1090,90.909 1119.182,106.945 1137.082,123.636 1137.082,149.165 
		1131.082,160 1128.082,172.727 1164.08,172.727 1195.545,181.818 1195.545,193.941 1195.545,210.44 1195.545,223.636 
		1211.5,195.44 1234.577,181.818 1257.076,181.818 1279.182,181.818 1301,189.091 1312.573,202.94 1312.573,210.44 
		1326.072,172.727 1339.182,149.165 1356.071,143 1373.727,149.165 1384.636,165.442 1384.636,172.727 1408.273,140 
		1432.567,123.636 1450.566,123.636 1462.818,140 1462.818,149.165 1473.065,160 1491.064,140 1513.563,140 1533.727,143 
		1542.061,160 1542.061,172.727 1560.06,149.165 1573.56,143 1595.545,143 1612.558,143 1630.557,149.165 1641.056,172.727 
		1651.556,149.165 1666.455,140 1681.554,133.944 1706.455,140 1728,160 1737.052,181.818 1737.052,202.94 1751.909,180.441 
		1782.818,186.441 1797.049,195.44 1804.548,210.44 1804.548,223.636 1834.547,210.44 1862.818,223.636 1869.045,240 
		1869.045,268.937 1855.546,283.936 1881,283.936 1901,294.545 1901,310.909 1894.544,329.091 1912.543,329.091 1920,337.933 
		1920,462.364 0,462.364 0,199.94 15.545,160 28.637,149.165 51.909,143 73.635,149.165 82.818,163.636 91.634,172.727 119.182,143 
		136.632,140 163.63,143 171.909,160 189.129,126.444 201.794,112.727 228.273,96.445 258.126,96.445 285.124,105.445 	"/>
</g>
<g id="Layer_1">
</g>
</svg>
