<?xml version="1.0" encoding="iso-8859-1"?>
<!-- Generator: Adobe Illustrator 18.1.0, SVG Export Plug-In . SVG Version: 6.00 Build 0)  -->
<svg version="1.1" xmlns="http://www.w3.org/2000/svg" xmlns:xlink="http://www.w3.org/1999/xlink" x="0px" y="0px"
	 viewBox="0 0 1143 626.398" style="enable-background:new 0 0 1143 626.398;" xml:space="preserve">
<g id="Wolk3">
	<polygon style="fill:#43A7A1;" points="553.727,64.034 538.612,27.67 503.481,3.852 450.091,0 408.273,11.898 388.273,27.67 
		376.994,73.125 349.483,37.648 316.138,23.784 276.228,23.784 241,42.216 221,58.58 182.818,42.216 154.631,20.398 119.182,15.318 
		73.635,15.318 48.273,42.216 41,54.943 24.137,42.216 0,42.216 0,626.398 1128.273,626.398 1143,596.463 1143,582.216 
		1143,558.965 1124.636,549.489 1097,549.489 1079.25,549.489 1083,524.034 1083,485.852 1066,465.852 1041.333,465.852 
		1020.152,474.943 1029.667,436.761 1026.364,413.125 1006.455,398.58 986.496,404.034 1006.455,365.474 1003,345.852 
		986.496,324.034 964.897,324.034 971.909,287.67 971.909,253.125 964.897,242.216 946.917,218.58 927.5,206.482 901.593,206.482 
		901.593,178.58 886.455,165.852 856.596,164.034 828.5,164.034 820.597,174.943 828.5,131.486 810.5,108.057 791.909,96.761 
		774.1,96.761 748.273,108.057 748.273,64.034 711.103,27.67 679.604,22.216 637.364,18.898 599.182,22.216 573.727,27.67 	"/>
</g>
<g id="Layer_1">
</g>
</svg>
